<svg width="24" height="24" viewBox="0 0 24 24" fill="none" xmlns="http://www.w3.org/2000/svg">
<path fill-rule="evenodd" clip-rule="evenodd" d="M4 9C4 7.89543 4.89543 7 6 7H18C19.1046 7 20 7.89543 20 9V18C20 19.1046 19.1046 20 18 20H6C4.89543 20 4 19.1046 4 18V9ZM18 9L6 9V18H18V9Z" fill="#3C3E44"/>
<path fill-rule="evenodd" clip-rule="evenodd" d="M9 13.5C9 12.9477 9.44772 12.5 10 12.5H14C14.5523 12.5 15 12.9477 15 13.5C15 14.0523 14.5523 14.5 14 14.5H10C9.44772 14.5 9 14.0523 9 13.5Z" fill="#3C3E44"/>
<path fill-rule="evenodd" clip-rule="evenodd" d="M3.1188 4.80954C3.496 4.30033 4.09221 4 4.72591 4H19.274C19.9077 4 20.5039 4.30032 20.8811 4.80955L21.6219 5.80954C22.5996 7.12948 21.6574 9 20.0148 9H3.98517C2.34256 9 1.40033 7.12948 2.37806 5.80954L3.1188 4.80954ZM19.274 6H4.72591L3.98517 7L20.0148 7L20.8183 6.40477L20.0148 7L19.274 6Z" fill="#3C3E44"/>
</svg>
