<svg width="24" height="24" viewBox="0 0 24 24" fill="none" xmlns="http://www.w3.org/2000/svg">
<g clip-path="url(#clip0_2489_1890)">
<path fill-rule="evenodd" clip-rule="evenodd" d="M4.92898 17.6569C4.53845 18.0474 4.53845 18.6805 4.92898 19.0711C8.83422 22.9763 15.1659 22.9763 19.0711 19.0711C22.9764 15.1658 22.9764 8.83418 19.0711 4.92893C15.1659 1.02369 8.83422 1.02369 4.92898 4.92893C2.97542 6.88249 1.99892 9.44528 2.00005 12.0044L2.00003 14C2.00002 14.5523 2.44774 15 3.00002 15C3.5523 15 4.00002 14.5523 4.00003 14L4.00005 12.0044C3.99904 9.9542 4.7799 7.90644 6.34319 6.34315C9.46739 3.21895 14.5327 3.21895 17.6569 6.34315C20.7811 9.46734 20.7811 14.5327 17.6569 17.6569C14.5327 20.781 9.46739 20.781 6.34319 17.6569C5.95267 17.2663 5.3195 17.2663 4.92898 17.6569Z" fill="#3C3E44"/>
<path fill-rule="evenodd" clip-rule="evenodd" d="M3.00003 12.5858L1.70714 11.2929C1.31661 10.9024 0.68345 10.9024 0.292925 11.2929C-0.0975998 11.6834 -0.0976005 12.3166 0.292924 12.7071L2.29292 14.7071C2.48046 14.8946 2.73481 15 3.00003 15C3.26524 15 3.5196 14.8946 3.70713 14.7071L5.70714 12.7071C6.09766 12.3166 6.09766 11.6834 5.70714 11.2929C5.31661 10.9024 4.68345 10.9024 4.29292 11.2929L3.00003 12.5858Z" fill="#3C3E44"/>
<path fill-rule="evenodd" clip-rule="evenodd" d="M11 7C10.4477 7 10 7.44772 10 8L10 13C10 13.5523 10.4477 14 11 14L16 14C16.5523 14 17 13.5523 17 13C17 12.4477 16.5523 12 16 12L12 12L12 8C12 7.44772 11.5523 7 11 7Z" fill="#3C3E44"/>
</g>
<defs>
<clipPath id="clip0_2489_1890">
<rect width="24" height="24" fill="white"/>
</clipPath>
</defs>
</svg>
