<svg width="24" height="24" viewBox="0 0 24 24" fill="none" xmlns="http://www.w3.org/2000/svg">
<path fill-rule="evenodd" clip-rule="evenodd" d="M12 9.5C10.6193 9.5 9.5 10.6193 9.5 12C9.5 13.3807 10.6193 14.5 12 14.5C13.3807 14.5 14.5 13.3807 14.5 12C14.5 10.6193 13.3807 9.5 12 9.5ZM7.5 12C7.5 9.51472 9.51472 7.5 12 7.5C14.4853 7.5 16.5 9.51472 16.5 12C16.5 14.4853 14.4853 16.5 12 16.5C9.51472 16.5 7.5 14.4853 7.5 12Z" fill="#3C3E44"/>
<path fill-rule="evenodd" clip-rule="evenodd" d="M7.72735 2.95875C9.76794 1.99442 12.0747 1.74875 14.2726 2.26168C16.4706 2.7746 18.4303 4.01596 19.8333 5.78391C21.2362 7.55185 21.9999 9.74241 22 11.9994V12.8994C22 13.8807 21.6102 14.8218 20.9163 15.5157C20.2224 16.2096 19.2813 16.5994 18.3 16.5994C17.3187 16.5994 16.3776 16.2096 15.6837 15.5157C14.9898 14.8218 14.6 13.8807 14.6 12.8994V8.39944C14.6 7.84715 15.0477 7.39944 15.6 7.39944C16.1523 7.39944 16.6 7.84715 16.6 8.39944V12.8994C16.6 13.3503 16.7791 13.7827 17.0979 14.1015C17.4167 14.4203 17.8491 14.5994 18.3 14.5994C18.7509 14.5994 19.1833 14.4203 19.5021 14.1015C19.8209 13.7827 20 13.3503 20 12.8994V11.9995C20 11.9995 20 11.9995 20 11.9995C19.9999 10.1939 19.389 8.44147 18.2666 7.02713C17.1443 5.61277 15.5764 4.61969 13.8181 4.20934C12.0598 3.799 10.2144 3.99554 8.58189 4.767C6.94942 5.53846 5.62593 6.83947 4.82662 8.45848C4.0273 10.0775 3.79918 11.9193 4.17934 13.6844C4.5595 15.4495 5.52559 17.0341 6.92051 18.1805C8.31543 19.3269 10.0572 19.9678 11.8625 19.9988C13.6678 20.0299 15.4305 19.4493 16.864 18.3515C17.3025 18.0157 17.9302 18.099 18.2659 18.5374C18.6017 18.9759 18.5185 19.6036 18.08 19.9394C16.2881 21.3116 14.0847 22.0373 11.8281 21.9985C9.57144 21.9597 7.39429 21.1587 5.65064 19.7256C3.90698 18.2926 2.69938 16.3119 2.22418 14.1055C1.74898 11.8991 2.03413 9.59687 3.03327 7.5731C4.03241 5.54933 5.68677 3.92307 7.72735 2.95875Z" fill="#3C3E44"/>
</svg>
