<svg width="24" height="24" viewBox="0 0 24 24" fill="none" xmlns="http://www.w3.org/2000/svg">
<path fill-rule="evenodd" clip-rule="evenodd" d="M16.05 4C15.3686 4 14.7261 4.25583 14.2611 4.69437L6.22389 12.2745C5.43268 13.0207 5 14.0198 5 15.0483C5 16.0769 5.43268 17.076 6.22389 17.8222C7.01708 18.5703 8.10476 19 9.25028 19C10.3958 19 11.4835 18.5703 12.2767 17.8222L20.3139 10.2421C20.7157 9.86317 21.3486 9.8817 21.7275 10.2835C22.1064 10.6853 22.0879 11.3182 21.6861 11.6971L13.6489 19.2772C12.4729 20.3863 10.8897 21 9.25028 21C7.61088 21 6.0277 20.3863 4.85166 19.2772C3.67363 18.1662 3 16.6463 3 15.0483C3 13.4503 3.67363 11.9305 4.85166 10.8195L12.8889 3.23938C13.7367 2.43976 14.8747 2 16.05 2C17.2252 2 18.3633 2.43976 19.2111 3.23938C20.0609 4.04087 20.5502 5.14086 20.5502 6.30111C20.5502 7.46136 20.0609 8.56136 19.2111 9.36285L11.1652 16.9429C11.165 16.9431 11.1653 16.9428 11.1652 16.9429C10.6456 17.4328 9.95245 17.6989 9.24154 17.6989C8.53044 17.6989 7.83755 17.433 7.31792 16.9429C6.7963 16.451 6.49144 15.7708 6.49144 15.0483C6.49144 14.3258 6.7963 13.6457 7.31792 13.1537L14.7434 6.15884C15.1454 5.78015 15.7783 5.79904 16.1569 6.20105C16.5356 6.60305 16.5167 7.23594 16.1147 7.61463L8.69015 14.6087C8.55565 14.7358 8.49144 14.8955 8.49144 15.0483C8.49144 15.2013 8.55535 15.3608 8.69015 15.488C8.82693 15.617 9.02432 15.6989 9.24154 15.6989C9.45875 15.6989 9.65614 15.617 9.79292 15.488L17.8389 7.90786C17.8387 7.90799 17.839 7.90774 17.8389 7.90786C18.3016 7.47124 18.5502 6.89172 18.5502 6.30111C18.5502 5.71034 18.3019 5.13103 17.8389 4.69437C17.3739 4.25583 16.7314 4 16.05 4Z" fill="#3C3E44"/>
</svg>
