<svg width="24" height="24" viewBox="0 0 24 24" fill="none" xmlns="http://www.w3.org/2000/svg">
<path d="M20 7C20.5523 7 21 7.44772 21 8C21 8.55228 20.5523 9 20 9H4C3.44772 9 3 8.55228 3 8C3 7.44772 3.44772 7 4 7H20Z" fill="#3C3E44"/>
<path d="M15 5V3C15 2.44772 15.4477 2 16 2C16.5523 2 17 2.44772 17 3V5C17 5.55228 16.5523 6 16 6C15.4477 6 15 5.55228 15 5Z" fill="#3C3E44"/>
<path d="M7 5V3C7 2.44772 7.44772 2 8 2C8.55228 2 9 2.44772 9 3V5C9 5.55228 8.55228 6 8 6C7.44772 6 7 5.55228 7 5Z" fill="#3C3E44"/>
<path d="M20 6C20 5.44772 19.5523 5 19 5H5C4.44772 5 4 5.44772 4 6V19C4 19.5523 4.44772 20 5 20H19C19.5523 20 20 19.5523 20 19V6ZM22 19C22 20.6569 20.6569 22 19 22H5C3.34315 22 2 20.6569 2 19V6C2 4.34315 3.34315 3 5 3H19C20.6569 3 22 4.34315 22 6V19Z" fill="#3C3E44"/>
<path d="M14.5 13.5C15.0523 13.5 15.5 13.9477 15.5 14.5C15.5 15.0523 15.0523 15.5 14.5 15.5H9.5C8.94772 15.5 8.5 15.0523 8.5 14.5C8.5 13.9477 8.94772 13.5 9.5 13.5H14.5Z" fill="#3C3E44"/>
</svg>
