<svg width="24" height="24" viewBox="0 0 24 24" fill="none" xmlns="http://www.w3.org/2000/svg">
<path d="M20 7C20.5523 7 21 7.44772 21 8C21 8.55228 20.5523 9 20 9H4C3.44772 9 3 8.55228 3 8C3 7.44772 3.44772 7 4 7H20Z" fill="#3C3E44"/>
<path d="M15 5V3C15 2.44772 15.4477 2 16 2C16.5523 2 17 2.44772 17 3V5C17 5.55228 16.5523 6 16 6C15.4477 6 15 5.55228 15 5Z" fill="#3C3E44"/>
<path d="M7 5V3C7 2.44772 7.44772 2 8 2C8.55228 2 9 2.44772 9 3V5C9 5.55228 8.55228 6 8 6C7.44772 6 7 5.55228 7 5Z" fill="#3C3E44"/>
<path d="M20 6C20 5.44772 19.5523 5 19 5H5C4.44772 5 4 5.44772 4 6V19C4 19.5523 4.44772 20 5 20H19C19.5523 20 20 19.5523 20 19V6ZM22 19C22 20.6569 20.6569 22 19 22H5C3.34315 22 2 20.6569 2 19V6C2 4.34315 3.34315 3 5 3H19C20.6569 3 22 4.34315 22 6V19Z" fill="#3C3E44"/>
<path d="M16.002 15.5C16.5542 15.5 17.002 15.9477 17.002 16.5V16.502C17.002 17.0542 16.5542 17.502 16.002 17.502H16C15.4477 17.502 15 17.0542 15 16.502V16.5C15 15.9477 15.4477 15.5 16 15.5H16.002Z" fill="#3C3E44"/>
<path d="M12.002 15.5C12.5542 15.5 13.002 15.9477 13.002 16.5V16.502C13.002 17.0542 12.5542 17.502 12.002 17.502H12C11.4477 17.502 11 17.0542 11 16.502V16.5C11 15.9477 11.4477 15.5 12 15.5H12.002Z" fill="#3C3E44"/>
<path d="M8.00195 15.5C8.55424 15.5 9.00195 15.9477 9.00195 16.5V16.502C9.00195 17.0542 8.55424 17.502 8.00195 17.502H8C7.44772 17.502 7 17.0542 7 16.502V16.5C7 15.9477 7.44772 15.5 8 15.5H8.00195Z" fill="#3C3E44"/>
<path d="M16.002 11.5C16.5542 11.5 17.002 11.9477 17.002 12.5V12.502C17.002 13.0542 16.5542 13.502 16.002 13.502H16C15.4477 13.502 15 13.0542 15 12.502V12.5C15 11.9477 15.4477 11.5 16 11.5H16.002Z" fill="#3C3E44"/>
<path d="M12.002 11.5C12.5542 11.5 13.002 11.9477 13.002 12.5V12.502C13.002 13.0542 12.5542 13.502 12.002 13.502H12C11.4477 13.502 11 13.0542 11 12.502V12.5C11 11.9477 11.4477 11.5 12 11.5H12.002Z" fill="#3C3E44"/>
<path d="M8.00195 11.5C8.55424 11.5 9.00195 11.9477 9.00195 12.5V12.502C9.00195 13.0542 8.55424 13.502 8.00195 13.502H8C7.44772 13.502 7 13.0542 7 12.502V12.5C7 11.9477 7.44772 11.5 8 11.5H8.00195Z" fill="#3C3E44"/>
</svg>
