<svg width="24" height="24" viewBox="0 0 24 24" fill="none" xmlns="http://www.w3.org/2000/svg">
<path fill-rule="evenodd" clip-rule="evenodd" d="M21.435 7.53563C21.8256 7.92615 21.8256 8.55932 21.435 8.94984L12.9497 17.4351C12.5592 17.8256 11.9261 17.8256 11.5355 17.4351L7.29289 13.1925C6.90237 12.802 6.90237 12.1688 7.29289 11.7783C7.68342 11.3877 8.31658 11.3877 8.70711 11.7783L12.2426 15.3138L20.0208 7.53563C20.4113 7.14511 21.0445 7.14511 21.435 7.53563Z" fill="#3C3E44"/>
<path fill-rule="evenodd" clip-rule="evenodd" d="M16.4318 7.53242C16.8241 7.92117 16.827 8.55433 16.4382 8.94662L13.2103 12.204C12.8216 12.5963 12.1884 12.5992 11.7961 12.2105C11.4038 11.8217 11.4009 11.1886 11.7897 10.7963L15.0176 7.53885C15.4064 7.14656 16.0395 7.14368 16.4318 7.53242ZM2.29289 11.7783C2.68342 11.3877 3.31658 11.3877 3.70711 11.7783L7.94975 16.0209C8.34027 16.4114 8.34027 17.0446 7.94975 17.4351C7.55922 17.8256 6.92606 17.8256 6.53553 17.4351L2.29289 13.1925C1.90237 12.802 1.90237 12.1688 2.29289 11.7783Z" fill="#3C3E44"/>
</svg>
