<svg width="24" height="24" viewBox="0 0 24 24" fill="none" xmlns="http://www.w3.org/2000/svg">
<path fill-rule="evenodd" clip-rule="evenodd" d="M12 22C17.5229 22 22 17.5227 22 12C22 6.47725 17.5229 2 12 2C6.47714 2 2 6.47725 2 12C2 17.5227 6.47714 22 12 22ZM16.4302 7.56985C16.7978 7.93721 16.7978 8.5332 16.4302 8.90085L13.331 12L16.4302 15.0992C16.7978 15.4668 16.7978 16.0628 16.4302 16.4301C16.0627 16.7978 15.4668 16.7978 15.0992 16.4301L12 13.331L8.90081 16.4301C8.53328 16.7978 7.93736 16.7978 7.56978 16.4301C7.20224 16.0628 7.20224 15.4668 7.56978 15.0992L10.669 12L7.56978 8.90085C7.20224 8.5332 7.20224 7.93721 7.56978 7.56985C7.93732 7.20221 8.53324 7.20221 8.90081 7.56985L12 10.669L15.0992 7.56985C15.4668 7.20221 16.0627 7.20221 16.4302 7.56985Z" fill="#9B9FA6"/>
</svg>
