<svg width="24" height="24" viewBox="0 0 24 24" fill="none" xmlns="http://www.w3.org/2000/svg">
<path fill-rule="evenodd" clip-rule="evenodd" d="M4.84615 4C4.62174 4 4.40652 4.08915 4.24783 4.24783C4.08915 4.40652 4 4.62174 4 4.84615V13.1538C4 13.3783 4.08915 13.5935 4.24783 13.7522C4.40652 13.9109 4.62174 14 4.84615 14H5.76923C6.32152 14 6.76923 14.4477 6.76923 15C6.76923 15.5523 6.32152 16 5.76923 16H4.84615C4.09131 16 3.36738 15.7001 2.83362 15.1664C2.29986 14.6326 2 13.9087 2 13.1538V4.84615C2 4.09131 2.29986 3.36738 2.83362 2.83362C3.36738 2.29986 4.09131 2 4.84615 2H13.1538C13.9087 2 14.6326 2.29986 15.1664 2.83362C15.7001 3.36738 16 4.09131 16 4.84615V5.76923C16 6.32152 15.5523 6.76923 15 6.76923C14.4477 6.76923 14 6.32152 14 5.76923V4.84615C14 4.62174 13.9109 4.40652 13.7522 4.24783C13.5935 4.08915 13.3783 4 13.1538 4H4.84615Z" fill="#3C3E44"/>
<path fill-rule="evenodd" clip-rule="evenodd" d="M8 11C8 9.34315 9.34315 8 11 8H19C20.6569 8 22 9.34315 22 11V19C22 20.6569 20.6569 22 19 22H11C9.34315 22 8 20.6569 8 19V11ZM11 10C10.4477 10 10 10.4477 10 11V19C10 19.5523 10.4477 20 11 20H19C19.5523 20 20 19.5523 20 19V11C20 10.4477 19.5523 10 19 10H11Z" fill="#3C3E44"/>
</svg>
