<svg width="24" height="24" viewBox="0 0 24 24" fill="none" xmlns="http://www.w3.org/2000/svg">
<path fill-rule="evenodd" clip-rule="evenodd" d="M10.2857 4C10.1125 4 9.93581 4.07182 9.79767 4.21686C9.65795 4.36357 9.57143 4.57251 9.57143 4.8V6H14.4286V4.8C14.4286 4.57251 14.3421 4.36357 14.2023 4.21686C14.0642 4.07182 13.8875 4 13.7143 4H10.2857ZM16.4286 6V4.8C16.4286 4.07271 16.1539 3.36598 15.6506 2.83755C15.1458 2.30747 14.4503 2 13.7143 2H10.2857C9.54966 2 8.85424 2.30747 8.3494 2.83755C7.84613 3.36598 7.57143 4.07271 7.57143 4.8V6H5C4.72059 6 4.45391 6.1169 4.26458 6.32239C4.07525 6.52788 3.98052 6.80321 4.00335 7.08169L5.00036 19.2452C5.0115 19.9565 5.28514 20.645 5.77797 21.1624C6.28281 21.6925 6.97824 22 7.71429 22H16.2857C17.0218 22 17.7172 21.6925 18.222 21.1624C18.7149 20.645 18.9885 19.9565 18.9996 19.2452L19.9967 7.08169C20.0195 6.80321 19.9248 6.52788 19.7354 6.32239C19.5461 6.1169 19.2794 6 19 6H16.4286ZM6.08532 8L6.99666 19.1183C6.99889 19.1455 7 19.1727 7 19.2C7 19.4275 7.08653 19.6364 7.22624 19.7831C7.36438 19.9282 7.54103 20 7.71429 20H16.2857C16.459 20 16.6356 19.9282 16.7738 19.7831C16.9135 19.6364 17 19.4275 17 19.2C17 19.1727 17.0011 19.1455 17.0033 19.1183L17.9147 8H6.08532Z" fill="#3C3E44"/>
<path fill-rule="evenodd" clip-rule="evenodd" d="M3 7C3 6.44772 3.44772 6 4 6H20C20.5523 6 21 6.44772 21 7C21 7.55228 20.5523 8 20 8H4C3.44772 8 3 7.55228 3 7Z" fill="#3C3E44"/>
</svg>
