<svg width="24" height="24" viewBox="0 0 24 24" fill="none" xmlns="http://www.w3.org/2000/svg">
<path fill-rule="evenodd" clip-rule="evenodd" d="M3 8C3 7.44772 3.44772 7 4 7H20C20.5523 7 21 7.44772 21 8V19C21 20.1046 20.1046 21 19 21H5C3.89543 21 3 20.1046 3 19V8ZM5 9V19L19 19V9H5Z" fill="#3C3E44"/>
<path fill-rule="evenodd" clip-rule="evenodd" d="M12 10C12.5523 10 13 10.4477 13 11L13 17C13 17.5523 12.5523 18 12 18C11.4477 18 11 17.5523 11 17L11 11C11 10.4477 11.4477 10 12 10Z" fill="#3C3E44"/>
<path fill-rule="evenodd" clip-rule="evenodd" d="M8.16793 14.4453C8.47429 13.9858 9.09516 13.8616 9.55468 14.1679L12 15.7981L14.4453 14.1679C14.9048 13.8616 15.5257 13.9858 15.832 14.4453C16.1384 14.9048 16.0142 15.5257 15.5547 15.832L12.5547 17.832C12.2188 18.056 11.7812 18.056 11.4453 17.832L8.44528 15.832C7.98576 15.5257 7.86158 14.9048 8.16793 14.4453Z" fill="#3C3E44"/>
<path fill-rule="evenodd" clip-rule="evenodd" d="M5.12955 4.00772C5.48564 3.38457 6.14832 3 6.86604 3H17.134C17.8517 3 18.5144 3.38457 18.8705 4.00772L20.8682 7.50386C21.0451 7.81336 21.0438 8.19361 20.8649 8.50193C20.686 8.81024 20.3565 9 20 9H4C3.64353 9 3.31401 8.81024 3.13509 8.50193C2.95617 8.19361 2.9549 7.81336 3.13176 7.50386L5.12955 4.00772ZM17.134 5L6.86604 5L5.72318 7H18.2768L17.134 5Z" fill="#3C3E44"/>
</svg>
