<svg width="24" height="24" viewBox="0 0 24 24" fill="none" xmlns="http://www.w3.org/2000/svg">
<path fill-rule="evenodd" clip-rule="evenodd" d="M12 3C12.5523 3 13 3.44772 13 4L13 14.5858L16.2929 11.2929C16.6834 10.9024 17.3166 10.9024 17.7071 11.2929C18.0976 11.6834 18.0976 12.3166 17.7071 12.7071L12.7071 17.7071C12.3166 18.0976 11.6834 18.0976 11.2929 17.7071L6.29289 12.7071C5.90237 12.3166 5.90237 11.6834 6.29289 11.2929C6.68342 10.9024 7.31658 10.9024 7.70711 11.2929L11 14.5858L11 4C11 3.44772 11.4477 3 12 3Z" fill="#3C3E44"/>
<path fill-rule="evenodd" clip-rule="evenodd" d="M5 20C5 19.4477 5.44772 19 6 19H18C18.5523 19 19 19.4477 19 20C19 20.5523 18.5523 21 18 21H6C5.44772 21 5 20.5523 5 20Z" fill="#3C3E44"/>
</svg>
