<svg width="24" height="24" viewBox="0 0 24 24" fill="none" xmlns="http://www.w3.org/2000/svg">
<path fill-rule="evenodd" clip-rule="evenodd" d="M2.81359 4.81359C3.33453 4.29266 4.04107 4 4.77778 4H11C11.5523 4 12 4.44772 12 5C12 5.55228 11.5523 6 11 6H4.77778C4.5715 6 4.37367 6.08194 4.22781 6.22781C4.08194 6.37367 4 6.5715 4 6.77778V19.2222C4 19.4285 4.08194 19.6263 4.22781 19.7722C4.37367 19.9181 4.5715 20 4.77778 20H17.2222C17.4285 20 17.6263 19.9181 17.7722 19.7722C17.9181 19.6263 18 19.4285 18 19.2222V13C18 12.4477 18.4477 12 19 12C19.5523 12 20 12.4477 20 13V19.2222C20 19.9589 19.7073 20.6655 19.1864 21.1864C18.6655 21.7073 17.9589 22 17.2222 22H4.77778C4.04106 22 3.33453 21.7073 2.81359 21.1864C2.29266 20.6655 2 19.9589 2 19.2222V6.77778C2 6.04107 2.29266 5.33453 2.81359 4.81359Z" fill="#3C3E44"/>
<path fill-rule="evenodd" clip-rule="evenodd" d="M19.0471 4C18.7944 4 18.5521 4.10039 18.3734 4.27909L9.82358 12.8289L9.37439 14.6256L11.1711 14.1764L19.7209 5.62666C19.8996 5.44796 20 5.20559 20 4.95287C20 4.70016 19.8996 4.45779 19.7209 4.27909C19.5422 4.10039 19.2999 4 19.0471 4ZM16.9591 2.86488C17.5129 2.31111 18.264 2 19.0471 2C19.8303 2 20.5814 2.31111 21.1351 2.86488C21.6889 3.41865 22 4.16972 22 4.95287C22 5.73603 21.6889 6.4871 21.1351 7.04087L12.3895 15.7865C12.2613 15.9147 12.1008 16.0056 11.9249 16.0495L8.24256 16.9701C7.90178 17.0553 7.54129 16.9555 7.29291 16.7071C7.04453 16.4587 6.94468 16.0982 7.02988 15.7575L7.95047 12.0751C7.99443 11.8993 8.08535 11.7387 8.21351 11.6105L16.9591 2.86488Z" fill="#3C3E44"/>
</svg>
