<svg width="24" height="24" viewBox="0 0 24 24" fill="none" xmlns="http://www.w3.org/2000/svg">
<path fill-rule="evenodd" clip-rule="evenodd" d="M16.2929 2.29289C16.6834 1.90237 17.3166 1.90237 17.7071 2.29289L21.7071 6.29289C22.0976 6.68342 22.0976 7.31658 21.7071 7.70711L9.70711 19.7071C9.54655 19.8677 9.33612 19.9688 9.11044 19.9939L4.61044 20.4939C4.30851 20.5274 4.00771 20.4219 3.7929 20.2071C3.57809 19.9923 3.47258 19.6915 3.50612 19.3896L4.00612 14.8896C4.0312 14.6639 4.13234 14.4535 4.2929 14.2929L16.2929 2.29289ZM5.95515 15.4591L5.63193 18.3681L8.54094 18.0449L19.5858 7L17 4.41421L5.95515 15.4591Z" fill="#3C3E44"/>
<path fill-rule="evenodd" clip-rule="evenodd" d="M13.2929 5.29289C13.6834 4.90237 14.3166 4.90237 14.7071 5.29289L18.7071 9.29289C19.0976 9.68342 19.0976 10.3166 18.7071 10.7071C18.3166 11.0976 17.6834 11.0976 17.2929 10.7071L13.2929 6.70711C12.9024 6.31658 12.9024 5.68342 13.2929 5.29289Z" fill="#3C3E44"/>
<path fill-rule="evenodd" clip-rule="evenodd" d="M12 20C12 19.4477 12.4477 19 13 19H21C21.5523 19 22 19.4477 22 20C22 20.5523 21.5523 21 21 21H13C12.4477 21 12 20.5523 12 20Z" fill="#3C3E44"/>
</svg>
