<svg width="24" height="24" viewBox="0 0 24 24" fill="none" xmlns="http://www.w3.org/2000/svg">
<path fill-rule="evenodd" clip-rule="evenodd" d="M8 3C8 2.44772 8.44772 2 9 2H19C19.5523 2 20 2.44772 20 3V21C20 21.5523 19.5523 22 19 22H9C8.44772 22 8 21.5523 8 21C8 20.4477 8.44772 20 9 20H18V4H9C8.44772 4 8 3.55228 8 3Z" fill="#3C3E44"/>
<path fill-rule="evenodd" clip-rule="evenodd" d="M9.2929 8.29289C9.68342 7.90237 10.3166 7.90237 10.7071 8.29289L13.7071 11.2929C14.0976 11.6834 14.0976 12.3166 13.7071 12.7071L10.7071 15.7071C10.3166 16.0976 9.68342 16.0976 9.29289 15.7071C8.90237 15.3166 8.90237 14.6834 9.29289 14.2929L10.5858 13H3C2.44772 13 2 12.5523 2 12C2 11.4477 2.44772 11 3 11H10.5858L9.29289 9.70711C8.90237 9.31658 8.90237 8.68342 9.2929 8.29289Z" fill="#3C3E44"/>
</svg>
