<svg width="24" height="24" viewBox="0 0 24 24" fill="none" xmlns="http://www.w3.org/2000/svg">
<path fill-rule="evenodd" clip-rule="evenodd" d="M16 3C16 2.44772 15.5523 2 15 2H5C4.44771 2 4 2.44772 4 3V21C4 21.5523 4.44771 22 5 22H15C15.5523 22 16 21.5523 16 21C16 20.4477 15.5523 20 15 20H6V4H15C15.5523 4 16 3.55228 16 3Z" fill="#3C3E44"/>
<path fill-rule="evenodd" clip-rule="evenodd" d="M17.2929 8.29289C17.6834 7.90237 18.3166 7.90237 18.7071 8.29289L21.7071 11.2929C22.0976 11.6834 22.0976 12.3166 21.7071 12.7071L18.7071 15.7071C18.3166 16.0976 17.6834 16.0976 17.2929 15.7071C16.9024 15.3166 16.9024 14.6834 17.2929 14.2929L18.5858 13H11C10.4477 13 10 12.5523 10 12C10 11.4477 10.4477 11 11 11H18.5858L17.2929 9.70711C16.9024 9.31658 16.9024 8.68342 17.2929 8.29289Z" fill="#3C3E44"/>
</svg>
