<svg width="24" height="24" viewBox="0 0 24 24" fill="none" xmlns="http://www.w3.org/2000/svg">
<path d="M12 4C17.116 4 21.1968 7.19381 22.9316 11.6357C23.023 11.8697 23.023 12.1303 22.9316 12.3643C21.1968 16.8062 17.116 20 12 20C7.04378 20 3.05964 17.0023 1.23828 12.7764L1.06836 12.3643C0.97701 12.1303 0.97701 11.8697 1.06836 11.6357L1.23828 11.2236C3.05964 6.99772 7.04378 4 12 4ZM12 6C7.92564 6 4.61918 8.44349 3.08106 12C4.61918 15.5565 7.92564 18 12 18C16.0742 18 19.3798 15.5563 20.918 12C19.3798 8.44368 16.0742 6 12 6ZM14 12C14 10.8954 13.1046 10 12 10C10.8954 10 10 10.8954 10 12C10 13.1046 10.8954 14 12 14C13.1046 14 14 13.1046 14 12ZM16 12C16 14.2091 14.2091 16 12 16C9.79086 16 8 14.2091 8 12C8 9.79086 9.79086 8 12 8C14.2091 8 16 9.79086 16 12Z" fill="#3C3E44"/>
</svg>
