<svg width="24" height="24" viewBox="0 0 24 24" fill="none" xmlns="http://www.w3.org/2000/svg">
<path fill-rule="evenodd" clip-rule="evenodd" d="M3.29289 2.29289C3.68342 1.90237 4.31658 1.90237 4.70711 2.29289L20.7071 18.2929C21.0976 18.6834 21.0976 19.3166 20.7071 19.7071C20.3166 20.0976 19.6834 20.0976 19.2929 19.7071L3.29289 3.70711C2.90237 3.31658 2.90237 2.68342 3.29289 2.29289Z" fill="#3C3E44"/>
<path fill-rule="evenodd" clip-rule="evenodd" d="M12 5.69995C11.6501 5.69995 11.3075 5.7201 10.973 5.7591C10.4244 5.82305 9.92789 5.43019 9.86393 4.88162C9.79998 4.33305 10.1928 3.8365 10.7414 3.77255C11.1533 3.72453 11.5732 3.69995 12 3.69995C16.6497 3.69995 20.3567 6.60379 21.9315 10.6362C22.0228 10.8701 22.0228 11.1298 21.9315 11.3637C21.5434 12.3574 21.0265 13.2825 20.3972 14.1129C20.0636 14.553 19.4364 14.6394 18.9962 14.3058C18.5561 13.9722 18.4697 13.345 18.8033 12.9048C19.2425 12.3253 19.6174 11.6862 19.9179 10.9999C18.5406 7.85366 15.608 5.69995 12 5.69995ZM7.92133 5.54663C8.20897 6.0181 8.05994 6.63348 7.58847 6.92111C6.05653 7.85573 4.83596 9.27849 4.08207 11C5.45941 14.1462 8.392 16.3 12 16.3C13.6481 16.3 15.1426 15.853 16.4117 15.0787C16.8832 14.791 17.4986 14.94 17.7862 15.4115C18.0739 15.883 17.9248 16.4983 17.4534 16.786C15.8738 17.7497 14.0195 18.3 12 18.3C7.3503 18.3 3.64328 15.3961 2.06851 11.3637C1.97716 11.1298 1.97716 10.8701 2.06851 10.6362C2.95444 8.36765 4.51329 6.45442 6.54685 5.21377C7.01832 4.92614 7.63369 5.07516 7.92133 5.54663ZM10.798 8.3836C11.1885 8.77414 11.1885 9.40731 10.798 9.79782C10.4892 10.1066 10.3 10.5302 10.3 11C10.3 11.9388 11.0611 12.7 12 12.7C12.4697 12.7 12.8934 12.5107 13.2021 12.202C13.5926 11.8114 14.2258 11.8114 14.6163 12.2019C15.0069 12.5924 15.0069 13.2256 14.6164 13.6161C13.9479 14.2847 13.0215 14.7 12 14.7C9.95655 14.7 8.3 13.0434 8.3 11C8.3 9.97844 8.71528 9.05202 9.38382 8.38354C9.77436 7.99303 10.4075 7.99306 10.798 8.3836Z" fill="#3C3E44"/>
<path fill-rule="evenodd" clip-rule="evenodd" d="M4.0927 3.09294C4.48322 2.70242 5.11639 2.70242 5.50691 3.09294L19.9069 17.4929C20.2974 17.8835 20.2974 18.5166 19.9069 18.9072C19.5164 19.2977 18.8832 19.2977 18.4927 18.9072L4.0927 4.50716C3.70217 4.11663 3.70217 3.48347 4.0927 3.09294Z" fill="#3C3E44"/>
</svg>
