<svg width="24" height="24" viewBox="0 0 24 24" fill="none" xmlns="http://www.w3.org/2000/svg">
<path fill-rule="evenodd" clip-rule="evenodd" d="M4 4C4.55228 4 5 4.44772 5 5V21C5 21.5523 4.55228 22 4 22C3.44772 22 3 21.5523 3 21V5C3 4.44772 3.44772 4 4 4Z" fill="#3C3E44"/>
<path fill-rule="evenodd" clip-rule="evenodd" d="M15.9709 4.59856C17.0318 4.71299 18.1357 4.50161 19.384 3.52552C19.6853 3.28997 20.0945 3.24684 20.4382 3.41441C20.7819 3.58197 21 3.93089 21 4.31329V15.6867C21 15.9944 20.8584 16.285 20.616 16.4745C18.9552 17.7731 17.3318 18.1304 15.7564 17.9605C14.2804 17.8013 12.8849 17.1776 11.6593 16.6298C11.6368 16.6197 11.6144 16.6097 11.5921 16.5997C10.2883 16.0172 9.1624 15.5237 8.02913 15.4014C6.96817 15.287 5.86429 15.4984 4.61597 16.4745C4.31473 16.71 3.90554 16.7532 3.56181 16.5856C3.21808 16.418 3 16.0691 3 15.6867V4.31329C3 4.0056 3.14164 3.71505 3.38403 3.52552C5.0448 2.22693 6.66819 1.86963 8.24359 2.03954C9.71962 2.19874 11.1151 2.82244 12.3407 3.37022C12.3632 3.38027 12.3856 3.39029 12.4079 3.40028C13.7117 3.98282 14.8376 4.47634 15.9709 4.59856ZM5 4.82143V13.9129C6.10079 13.4231 7.18306 13.2986 8.24359 13.413C9.71962 13.5722 11.1151 14.1959 12.3407 14.7436C12.3632 14.7537 12.3856 14.7637 12.4079 14.7737C13.7117 15.3562 14.8376 15.8498 15.9709 15.972C16.9217 16.0745 17.9071 15.9154 19 15.1786V6.08711C17.8992 6.57688 16.8169 6.70141 15.7564 6.58703C14.2804 6.42784 12.8849 5.80413 11.6593 5.25636C11.6368 5.24631 11.6144 5.23629 11.5921 5.2263C10.2883 4.64375 9.1624 4.15024 8.02913 4.02801C7.07826 3.92546 6.09291 4.08461 5 4.82143Z" fill="#3C3E44"/>
</svg>
