<svg width="24" height="24" viewBox="0 0 24 24" fill="none" xmlns="http://www.w3.org/2000/svg">
<path d="M20.2843 13.3063L13.4031 20.3983C12.6247 21.2006 11.3753 21.2006 10.5969 20.3983L3.71573 13.3063C1.42809 10.9486 1.42809 7.126 3.71573 4.76829C6.00337 2.41057 9.71236 2.41057 12 4.76829C14.2876 2.41057 17.9966 2.41057 20.2843 4.76829C22.5719 7.126 22.5719 10.9486 20.2843 13.3063Z" fill="#3C3E44"/>
<path fill-rule="evenodd" clip-rule="evenodd" d="M12.3508 19.2792L19.232 12.1872C20.9227 10.4447 20.9227 7.62989 19.232 5.88737C17.5281 4.13136 14.7561 4.13136 13.0523 5.88737C12.4685 6.48908 11.5315 6.48908 10.9477 5.88737C9.24387 4.13136 6.47186 4.13136 4.76805 5.88737C3.07732 7.62989 3.07732 10.4447 4.76805 12.1872L11.6492 19.2792C11.8438 19.4798 12.1562 19.4798 12.3508 19.2792ZM12 4.76829C9.71236 2.41057 6.00337 2.41057 3.71573 4.76829C1.42809 7.126 1.42809 10.9486 3.71573 13.3063L10.5969 20.3983C11.3753 21.2006 12.6247 21.2006 13.4031 20.3983L20.2843 13.3063C22.5719 10.9486 22.5719 7.126 20.2843 4.76829C17.9966 2.41057 14.2876 2.41057 12 4.76829Z" fill="#3C3E44"/>
</svg>
