<svg width="24" height="24" viewBox="0 0 24 24" fill="none" xmlns="http://www.w3.org/2000/svg">
<g clip-path="url(#clip0_1745_1808)">
<path d="M16.7257 16.7861L13.8028 19.791C12.9548 20.6626 11.5795 20.6626 10.7315 19.791L4.58995 13.4775C2.47006 11.2984 2.46997 7.76505 4.58995 5.58594C4.80101 5.36899 5.02529 5.17375 5.25987 5L16.7257 16.7861Z" fill="#3C3E44"/>
<path fill-rule="evenodd" clip-rule="evenodd" d="M11.9999 4.34319C14.4296 2.39334 17.9502 2.56637 20.1863 4.86228C22.6046 7.34531 22.6046 11.3711 20.1863 13.8541L20.0399 14.0045C19.7244 14.3283 19.213 14.3283 18.8976 14.0045C18.5822 13.6806 18.5822 13.1555 18.8976 12.8316L19.044 12.6813C20.8314 10.846 20.8314 7.87041 19.044 6.03513C17.2566 4.19984 14.3586 4.19984 12.5711 6.03513C12.2557 6.359 11.7443 6.359 11.4289 6.03513C11.1186 5.71653 10.7759 5.45402 10.4123 5.24676C10.0223 5.02445 9.8816 4.5196 10.0981 4.11914C10.3146 3.71868 10.8063 3.57425 11.1963 3.79656C11.4747 3.95526 11.7435 4.13752 11.9999 4.34319ZM5.7047 4.38306C5.96548 4.75467 5.88349 5.27298 5.52157 5.54074C5.32388 5.687 5.13462 5.85172 4.95599 6.03513C3.16856 7.87041 3.16856 10.846 4.95599 12.6813L11.0481 18.9365C11.5738 19.4763 12.4262 19.4763 12.9519 18.9365L15.8515 15.9592C16.167 15.6353 16.6784 15.6353 16.9938 15.9592C17.3092 16.2831 17.3092 16.8082 16.9938 17.1321L14.0942 20.1093C12.9376 21.2969 11.0624 21.2969 9.90584 20.1093L3.81372 13.8541C1.39543 11.3711 1.39543 7.34531 3.81372 4.86228C4.05392 4.61564 4.3094 4.39316 4.5772 4.19503C4.93912 3.92727 5.44392 4.01145 5.7047 4.38306Z" fill="#3C3E44"/>
<path fill-rule="evenodd" clip-rule="evenodd" d="M3.21967 2.21967C3.51256 1.92678 3.98744 1.92678 4.28033 2.21967L20.2803 18.2197C20.5732 18.5126 20.5732 18.9874 20.2803 19.2803C19.9874 19.5732 19.5126 19.5732 19.2197 19.2803L3.21967 3.28033C2.92678 2.98744 2.92678 2.51256 3.21967 2.21967Z" fill="#3C3E44"/>
</g>
<defs>
<clipPath id="clip0_1745_1808">
<rect width="24" height="24" fill="white"/>
</clipPath>
</defs>
</svg>
