<svg width="24" height="24" viewBox="0 0 24 24" fill="none" xmlns="http://www.w3.org/2000/svg">
<path opacity="0.16" d="M16.7257 16.7861L13.8028 19.791C12.9548 20.6626 11.5795 20.6626 10.7315 19.791L4.58995 13.4775C2.47006 11.2984 2.46997 7.76505 4.58995 5.58594C4.80101 5.36899 5.02529 5.17375 5.25987 5L16.7257 16.7861Z" fill="#4949D4"/>
<path fill-rule="evenodd" clip-rule="evenodd" d="M11.9999 4.23519C14.4612 2.39438 17.9339 2.6111 20.157 4.88533C22.6143 7.39911 22.6143 11.4748 20.157 13.9885L20.0145 14.1344C19.6049 14.5534 18.9409 14.5534 18.5314 14.1344C18.1218 13.7154 18.1218 13.0362 18.5314 12.6172L18.6739 12.4713C20.3121 10.7955 20.3121 8.07839 18.6739 6.40253C17.0358 4.72668 14.3797 4.72668 12.7415 6.40253C12.332 6.8215 11.668 6.8215 11.2585 6.40253C10.9737 6.11125 10.6596 5.87161 10.3266 5.6825C9.82026 5.39493 9.63763 4.74185 9.91875 4.22381C10.1999 3.70578 10.8383 3.51896 11.3446 3.80653C11.5698 3.93437 11.7886 4.07729 11.9999 4.23519ZM6.08246 4.45326C6.42105 4.93397 6.31459 5.60446 5.84468 5.95083C5.66356 6.08434 5.49 6.23482 5.32606 6.40253C3.68787 8.07839 3.68787 10.7955 5.32606 12.4713L11.2585 18.5401C11.668 18.9591 12.332 18.9591 12.7415 18.5401L15.5652 15.6516C15.9747 15.2326 16.6387 15.2326 17.0483 15.6516C17.4578 16.0706 17.4578 16.7498 17.0483 17.1688L14.2246 20.0573C12.996 21.3142 11.004 21.3142 9.77535 20.0573L3.84296 13.9885C1.38568 11.4748 1.38568 7.39911 3.84296 4.88533C4.08685 4.63583 4.34638 4.41063 4.61854 4.21002C5.08845 3.86364 5.74387 3.97255 6.08246 4.45326Z" fill="#4949D4"/>
<path fill-rule="evenodd" clip-rule="evenodd" d="M2.86868 2.30716C3.27823 1.89761 3.94224 1.89761 4.35178 2.30716L21.1311 19.0865C21.5407 19.4961 21.5407 20.1601 21.1311 20.5696C20.7216 20.9791 20.0576 20.9791 19.648 20.5696L2.86868 3.79026C2.45914 3.38071 2.45914 2.71671 2.86868 2.30716Z" fill="#4949D4"/>
</svg>
