<svg width="24" height="24" viewBox="0 0 24 24" fill="none" xmlns="http://www.w3.org/2000/svg">
<path opacity="0.16" d="M20.2843 13.3063L13.4031 20.3983C12.6247 21.2006 11.3753 21.2006 10.5969 20.3983L3.71573 13.3063C1.42809 10.9486 1.42809 7.126 3.71573 4.76829C6.00337 2.41057 9.71236 2.41057 12 4.76829C14.2876 2.41057 17.9966 2.41057 20.2843 4.76829C22.5719 7.126 22.5719 10.9486 20.2843 13.3063Z" fill="#4949D4"/>
<path fill-rule="evenodd" clip-rule="evenodd" d="M12 4.2331C9.53444 2.39159 6.05477 2.61266 3.8327 4.89633C1.3891 7.40765 1.3891 11.467 3.8327 13.9783L9.73482 20.044C10.9751 21.3187 13.0249 21.3187 14.2652 20.044L20.1673 13.9783C22.6109 11.467 22.6109 7.40765 20.1673 4.89633C17.9452 2.61266 14.4656 2.39159 12 4.2331ZM11.2449 6.36065C9.61152 4.68196 6.97624 4.68196 5.34282 6.36065C3.69275 8.05646 3.69275 10.8182 5.34282 12.514L11.2449 18.5797C11.6584 19.0046 12.3417 19.0046 12.7551 18.5797L18.6572 12.514C20.3073 10.8182 20.3073 8.05646 18.6572 6.36065C17.0238 4.68196 14.3885 4.68196 12.7551 6.36065C12.5568 6.56436 12.2845 6.6793 12 6.6793C11.7155 6.6793 11.4432 6.56436 11.2449 6.36065Z" fill="#4949D4"/>
</svg>
