<svg width="24" height="24" viewBox="0 0 24 24" fill="none" xmlns="http://www.w3.org/2000/svg">
<path d="M20 9.41601C20 9.39213 19.9882 9.35016 19.9355 9.31445L12.1348 4.03906C12.057 3.98683 11.943 3.98683 11.8652 4.03906L4.06445 9.31445C4.0118 9.35016 4.00001 9.39213 4 9.41601V19.2881C4 19.6344 4.31015 19.9999 4.7998 20H19.2002C19.6898 19.9999 20 19.6344 20 19.2881V9.41601ZM16.5 16.0625C17.0523 16.0625 17.5 16.5102 17.5 17.0625C17.5 17.6148 17.0523 18.0625 16.5 18.0625H7.5C6.94772 18.0625 6.5 17.6148 6.5 17.0625C6.5 16.5102 6.94772 16.0625 7.5 16.0625H16.5ZM22 19.2881C22 20.8324 20.6986 21.9999 19.2002 22H4.7998C3.30143 21.9999 2 20.8324 2 19.2881V9.41601C2.00001 8.70114 2.36412 8.0496 2.94434 7.65722L10.7441 2.38281C11.4989 1.8724 12.5011 1.8724 13.2559 2.38281L21.0557 7.65722C21.6359 8.0496 22 8.70114 22 9.41601V19.2881Z" fill="#3C3E44"/>
</svg>
