<svg width="24" height="24" viewBox="0 0 24 24" fill="none" xmlns="http://www.w3.org/2000/svg">
<path fill-rule="evenodd" clip-rule="evenodd" d="M7 3C4.79086 3 3 4.79086 3 7V17C3 19.2091 4.79086 21 7 21H17C19.2091 21 21 19.2091 21 17V7C21 4.79086 19.2091 3 17 3H7ZM1 7C1 3.68629 3.68629 1 7 1H17C20.3137 1 23 3.68629 23 7V17C23 20.3137 20.3137 23 17 23H7C3.68629 23 1 20.3137 1 17V7Z" fill="inherit"/>
<path fill-rule="evenodd" clip-rule="evenodd" d="M12.4833 8.98924C11.8591 8.89668 11.2216 9.0033 10.6615 9.29392C10.1014 9.58455 9.64721 10.0444 9.36351 10.608C9.07982 11.1717 8.98107 11.8104 9.08132 12.4334C9.18157 13.0564 9.47571 13.6319 9.9219 14.0781C10.3681 14.5243 10.9436 14.8184 11.5666 14.9187C12.1896 15.0189 12.8283 14.9202 13.392 14.6365C13.9556 14.3528 14.4155 13.8986 14.7061 13.3385C14.9967 12.7784 15.1033 12.1409 15.0108 11.5167C14.9164 10.88 14.6197 10.2906 14.1645 9.83547C13.7094 9.38034 13.12 9.08366 12.4833 8.98924ZM9.74037 7.51868C10.6739 7.0343 11.7363 6.85661 12.7766 7.01087C13.8378 7.16823 14.8202 7.6627 15.5788 8.42126C16.3373 9.17981 16.8318 10.1622 16.9891 11.2234C17.1434 12.2637 16.9657 13.3261 16.4813 14.2596C15.997 15.1931 15.2306 15.9501 14.2912 16.423C13.3518 16.8958 12.2872 17.0604 11.2489 16.8933C10.2105 16.7262 9.25134 16.236 8.50768 15.4923C7.76403 14.7487 7.2738 13.7895 7.10672 12.7511C6.93964 11.7128 7.10422 10.6482 7.57704 9.70884C8.04987 8.76944 8.80687 8.00305 9.74037 7.51868Z" fill="inherit"/>
<path fill-rule="evenodd" clip-rule="evenodd" d="M17.7248 6.94662C17.7266 6.9457 17.7285 6.94476 17.7303 6.94381C17.8218 6.89632 17.8964 6.82172 17.9438 6.73029C17.9448 6.72846 17.9457 6.72663 17.9466 6.7248C17.993 6.63269 18.0097 6.52856 17.9946 6.42666C17.9943 6.42463 17.994 6.4226 17.9937 6.42057C17.9769 6.31673 17.9279 6.22081 17.8536 6.14645C17.7792 6.07208 17.6833 6.02306 17.5794 6.00635C17.5774 6.00602 17.5754 6.00571 17.5733 6.00541C17.4714 5.9903 17.3673 6.00703 17.2752 6.05338C17.2734 6.05431 17.2715 6.05524 17.2697 6.05619C17.1783 6.10363 17.1037 6.17819 17.0562 6.26972C17.0552 6.27154 17.0543 6.27337 17.0534 6.27521C17.0071 6.36722 16.9903 6.47135 17.0054 6.57334C17.0057 6.57538 17.006 6.57741 17.0064 6.57944C17.023 6.68322 17.072 6.77915 17.1464 6.85355C17.2208 6.92796 17.3168 6.97695 17.4206 6.99365C17.4226 6.99398 17.4246 6.99429 17.4267 6.99459C17.5287 7.00972 17.6328 6.99293 17.7248 6.94662ZM16.8091 5.16857C17.0892 5.02325 17.4079 4.96995 17.72 5.01623C18.0384 5.06343 18.3331 5.21177 18.5607 5.43934C18.7882 5.66691 18.9366 5.96163 18.9838 6.27998C19.0301 6.59207 18.9767 6.91081 18.8314 7.19086C18.6861 7.47091 18.4562 7.69801 18.1744 7.83985C17.8926 7.9817 17.5732 8.03107 17.2617 7.98095C16.9502 7.93083 16.6624 7.78376 16.4393 7.56066C16.2162 7.33757 16.0692 7.0498 16.0191 6.73831C15.9689 6.42681 16.0183 6.10744 16.1601 5.82562C16.302 5.5438 16.5291 5.31388 16.8091 5.16857Z" fill="inherit"/>
</svg>
