<svg width="24" height="24" viewBox="0 0 24 24" fill="none" xmlns="http://www.w3.org/2000/svg">
<path fill-rule="evenodd" clip-rule="evenodd" d="M2 7C2 5.82607 3.00235 5 4.07795 5H15.4306C16.0202 5 16.5989 5.24214 17.0026 5.69155L21.4941 10.6916C22.1686 11.4425 22.1686 12.5575 21.4941 13.3084L17.0026 18.3084C16.5989 18.7579 16.0202 19 15.4306 19H4.07795C3.00235 19 2 18.1739 2 17V7ZM4 7.0225V16.9775C4.01233 16.987 4.03775 17 4.07795 17H15.4306C15.4536 17 15.4737 16.9952 15.4893 16.9884C15.5048 16.9817 15.5124 16.9745 15.5148 16.9719L19.981 12L15.5148 7.02808C15.5124 7.02547 15.5048 7.01833 15.4893 7.01157C15.4737 7.00481 15.4536 7 15.4306 7H4.07795C4.03775 7 4.01233 7.01301 4 7.0225Z" fill="#3C3E44"/>
</svg>
