<svg width="24" height="24" viewBox="0 0 24 24" fill="none" xmlns="http://www.w3.org/2000/svg">
<path fill-rule="evenodd" clip-rule="evenodd" d="M13.3975 1.0824C13.8048 1.25887 14.0471 1.68274 13.9923 2.12326L13.4023 6.87326C13.3343 7.42133 12.8348 7.81045 12.2867 7.74237C11.7386 7.67429 11.3495 7.17481 11.4176 6.62673L11.5872 5.2609L11.3386 5.55966C10.9853 5.98418 10.3548 6.04193 9.93031 5.68865C9.50579 5.33537 9.44804 4.70484 9.80132 4.28033L12.2313 1.36033C12.5153 1.01912 12.9902 0.905939 13.3975 1.0824Z" fill="#3C3E44"/>
<path fill-rule="evenodd" clip-rule="evenodd" d="M14.66 10C14.66 9.44772 15.1077 9 15.66 9H21C21.3882 9 21.7414 9.22467 21.9058 9.5763C22.0703 9.92794 22.0164 10.343 21.7676 10.641L19.3376 13.551C18.9836 13.9749 18.353 14.0316 17.9291 13.6776C17.5052 13.3236 17.4485 12.693 17.8025 12.269L18.8622 11H15.66C15.1077 11 14.66 10.5523 14.66 10Z" fill="#3C3E44"/>
<path fill-rule="evenodd" clip-rule="evenodd" d="M8.6402 7.2318C9.06447 7.58537 9.1218 8.21593 8.76823 8.64021L5.13505 13H12C12.2868 13 12.5599 13.1232 12.7497 13.3382C12.9395 13.5533 13.0279 13.8394 12.9923 14.1241L12.4154 18.7396L15.2318 15.3598C15.5854 14.9356 16.2159 14.8782 16.6402 15.2318C17.0645 15.5854 17.1218 16.2159 16.7682 16.6402L11.7682 22.6402C11.484 22.9812 11.009 23.0941 10.6018 22.9173C10.1946 22.7406 9.95267 22.3165 10.0077 21.876L10.8672 15H3.00001C2.61199 15 2.259 14.7756 2.09442 14.4242C1.92984 14.0728 1.98339 13.6579 2.23179 13.3598L7.23179 7.35984C7.58536 6.93556 8.21592 6.87824 8.6402 7.2318Z" fill="#3C3E44"/>
<path fill-rule="evenodd" clip-rule="evenodd" d="M2.29289 2.29289C2.68342 1.90237 3.31658 1.90237 3.70711 2.29289L21.7071 20.2929C22.0976 20.6834 22.0976 21.3166 21.7071 21.7071C21.3166 22.0976 20.6834 22.0976 20.2929 21.7071L2.29289 3.70711C1.90237 3.31658 1.90237 2.68342 2.29289 2.29289Z" fill="#3C3E44"/>
</svg>
