<svg width="24" height="24" viewBox="0 0 24 24" fill="none" xmlns="http://www.w3.org/2000/svg">
<path fill-rule="evenodd" clip-rule="evenodd" d="M6.17647 5.11765C5.89565 5.11765 5.62634 5.2292 5.42777 5.42777C5.2292 5.62634 5.11765 5.89565 5.11765 6.17647V17.8235C5.11765 18.1043 5.2292 18.3737 5.42777 18.5722C5.62634 18.7708 5.89565 18.8824 6.17647 18.8824H17.8235C18.1043 18.8824 18.3737 18.7708 18.5722 18.5722C18.7708 18.3737 18.8824 18.1043 18.8824 17.8235V15.4706C18.8824 14.8858 19.3564 14.4118 19.9412 14.4118C20.5259 14.4118 21 14.8858 21 15.4706V17.8235C21 18.666 20.6653 19.4739 20.0696 20.0696C19.4739 20.6653 18.666 21 17.8235 21H6.17647C5.33402 21 4.52607 20.6653 3.93037 20.0696C3.33466 19.4739 3 18.666 3 17.8235V6.17647C3 5.33402 3.33466 4.52607 3.93037 3.93037C4.52607 3.33466 5.33402 3 6.17647 3H8.52941C9.11418 3 9.58824 3.47405 9.58824 4.05882C9.58824 4.6436 9.11418 5.11765 8.52941 5.11765H6.17647Z" fill="#3C3E44"/>
<path fill-rule="evenodd" clip-rule="evenodd" d="M13 4C13 3.44772 13.4477 3 14 3H20C20.5523 3 21 3.44772 21 4V10C21 10.5523 20.5523 11 20 11C19.4477 11 19 10.5523 19 10V5H14C13.4477 5 13 4.55228 13 4Z" fill="#3C3E44"/>
<path fill-rule="evenodd" clip-rule="evenodd" d="M20.7071 3.29289C21.0976 3.68342 21.0976 4.31658 20.7071 4.70711L10.7071 14.7071C10.3166 15.0976 9.68342 15.0976 9.29289 14.7071C8.90237 14.3166 8.90237 13.6834 9.29289 13.2929L19.2929 3.29289C19.6834 2.90237 20.3166 2.90237 20.7071 3.29289Z" fill="#3C3E44"/>
</svg>
