<svg width="24" height="24" viewBox="0 0 24 24" fill="none" xmlns="http://www.w3.org/2000/svg">
<path fill-rule="evenodd" clip-rule="evenodd" d="M12 4.22222C11.0345 4.22222 10.1151 4.56779 9.44238 5.17336C8.77083 5.7779 8.4 6.59105 8.4 7.4321V10.8889C8.4 11.5025 7.86274 12 7.2 12C6.53726 12 6 11.5025 6 10.8889V7.4321C6 5.98116 6.6406 4.59619 7.76939 3.58004C8.89704 2.56492 10.4194 2 12 2C13.5806 2 15.103 2.56492 16.2306 3.58004C17.3594 4.59619 18 5.98116 18 7.4321V10.8889C18 11.5025 17.4627 12 16.8 12C16.1373 12 15.6 11.5025 15.6 10.8889V7.4321C15.6 6.59105 15.2292 5.7779 14.5576 5.17336C13.8849 4.56779 12.9655 4.22222 12 4.22222Z" fill="#3C3E44"/>
<path fill-rule="evenodd" clip-rule="evenodd" d="M3 12C3 10.8954 4.00736 10 5.25 10H18.75C19.9926 10 21 10.8954 21 12V20C21 21.1046 19.9926 22 18.75 22H5.25C4.00736 22 3 21.1046 3 20V12ZM18.75 12L5.25 12V20H18.75V12Z" fill="#3C3E44"/>
</svg>
