<svg width="24" height="24" viewBox="0 0 24 24" fill="none" xmlns="http://www.w3.org/2000/svg">
<path fill-rule="evenodd" clip-rule="evenodd" d="M8.23951 3.12702C8.52566 2.96714 8.872 2.95765 9.16648 3.10162L15.2418 6.07177L20.5122 3.12702C20.8219 2.95399 21.2001 2.95798 21.5061 3.13752C21.8121 3.31705 22 3.64525 22 4V16.8C22 17.1623 21.804 17.4963 21.4878 17.673L15.7605 20.873C15.4743 21.0329 15.128 21.0424 14.8335 20.8984L8.7582 17.9282L3.48776 20.873C3.17807 21.046 2.79988 21.042 2.49392 20.8625C2.18795 20.683 2 20.3548 2 20V7.2C2 6.8377 2.19596 6.50374 2.51224 6.32702L8.23951 3.12702ZM8.75819 5.12823L4 7.78677V18.2958L8.23951 15.927C8.52566 15.7671 8.872 15.7576 9.16648 15.9016L15.2418 18.8718L20 16.2132V5.70423L15.7605 8.07298C15.4743 8.23286 15.128 8.24235 14.8335 8.09838L8.75819 5.12823Z" fill="#3C3E44"/>
<path fill-rule="evenodd" clip-rule="evenodd" d="M9 4C9.55228 4 10 4.44772 10 5V17C10 17.5523 9.55228 18 9 18C8.44772 18 8 17.5523 8 17V5C8 4.44772 8.44772 4 9 4Z" fill="#3C3E44"/>
<path fill-rule="evenodd" clip-rule="evenodd" d="M15 6C15.5523 6 16 6.44772 16 7V19C16 19.5523 15.5523 20 15 20C14.4477 20 14 19.5523 14 19V7C14 6.44772 14.4477 6 15 6Z" fill="#3C3E44"/>
</svg>
