<svg width="24" height="24" viewBox="0 0 24 24" fill="none" xmlns="http://www.w3.org/2000/svg">
<path d="M12.9291 10.4559C12.929 9.95505 12.5186 9.53901 12.0004 9.53888C11.4821 9.53888 11.0717 9.95498 11.0717 10.4559C11.0717 10.9568 11.482 11.3729 12.0004 11.3729C12.5186 11.3727 12.9291 10.9567 12.9291 10.4559ZM14.9291 10.4559C14.9291 12.0724 13.612 13.3727 12.0004 13.3729C10.3886 13.3729 9.07166 12.0725 9.07166 10.4559C9.07172 8.83929 10.3886 7.53888 12.0004 7.53888C13.612 7.53901 14.929 8.83937 14.9291 10.4559Z" fill="#3C3E44"/>
<path d="M6.30855 4.1748C9.64462 1.17822 14.7935 1.27827 18.0087 4.4746L18.3095 4.79003C21.327 8.10999 21.2272 13.2379 18.0087 16.4375L12.705 21.709C12.315 22.0967 11.6849 22.0967 11.2949 21.709L5.99117 16.4375C2.66905 13.1349 2.66919 7.77729 5.99117 4.4746L6.30855 4.1748ZM16.5986 5.89257C14.139 3.44751 10.1967 3.37179 7.64449 5.66406L7.40132 5.89257C4.86579 8.41318 4.86597 12.4978 7.40132 15.0185L12 19.5898L16.5986 15.0185C19.0548 12.5765 19.131 8.66733 16.8281 6.13378L16.5986 5.89257Z" fill="#3C3E44"/>
</svg>
