<svg width="24" height="24" viewBox="0 0 24 24" fill="none" xmlns="http://www.w3.org/2000/svg">
<path fill-rule="evenodd" clip-rule="evenodd" d="M3.29292 3.29292C3.57945 3.0064 4.01056 2.9211 4.38461 3.07694L21.3546 10.1469C21.7386 10.3069 21.9835 10.6879 21.9695 11.1037C21.9555 11.5194 21.6855 11.8831 21.2916 12.0169L14.3684 14.3684L12.0169 21.2916C11.8831 21.6855 11.5194 21.9555 11.1037 21.9695C10.6879 21.9835 10.3069 21.7386 10.1469 21.3546L3.07694 4.38461C2.9211 4.01056 3.0064 3.57945 3.29292 3.29292ZM5.85698 5.85698L10.9748 18.1411L12.6332 13.2584C12.7331 12.9642 12.9642 12.7331 13.2584 12.6332L18.1411 10.9748L5.85698 5.85698Z" fill="#3C3E44"/>
<path fill-rule="evenodd" clip-rule="evenodd" d="M13.2929 13.2929C13.6834 12.9024 14.3166 12.9024 14.7071 13.2929L20.7071 19.2929C21.0976 19.6834 21.0976 20.3166 20.7071 20.7071C20.3166 21.0976 19.6834 21.0976 19.2929 20.7071L13.2929 14.7071C12.9024 14.3166 12.9024 13.6834 13.2929 13.2929Z" fill="#3C3E44"/>
</svg>
