<svg width="24" height="24" viewBox="0 0 24 24" fill="none" xmlns="http://www.w3.org/2000/svg">
<path fill-rule="evenodd" clip-rule="evenodd" d="M20.677 3.29292C20.3905 3.0064 19.9594 2.9211 19.5854 3.07694L2.61537 10.1469C2.23136 10.3069 1.98651 10.6879 2.00051 11.1037C2.01451 11.5194 2.28444 11.8831 2.67834 12.0169L9.60159 14.3684L11.9531 21.2916C12.0869 21.6855 12.4505 21.9555 12.8663 21.9695C13.282 21.9835 13.6631 21.7386 13.823 21.3546L20.893 4.38461C21.0489 4.01056 20.9636 3.57945 20.677 3.29292ZM18.113 5.85698L12.9952 18.1411L11.3368 13.2584C11.2369 12.9642 11.0058 12.7331 10.7115 12.6332L5.82887 10.9748L18.113 5.85698Z" fill="#3C3E44"/>
<path fill-rule="evenodd" clip-rule="evenodd" d="M10.6771 13.2929C10.2866 12.9024 9.65339 12.9024 9.26286 13.2929L3.26286 19.2929C2.87234 19.6834 2.87234 20.3166 3.26286 20.7071C3.65339 21.0976 4.28655 21.0976 4.67708 20.7071L10.6771 14.7071C11.0676 14.3166 11.0676 13.6834 10.6771 13.2929Z" fill="#3C3E44"/>
</svg>
