<svg width="24" height="24" viewBox="0 0 24 24" fill="none" xmlns="http://www.w3.org/2000/svg">
<path d="M20 12C20 7.58172 16.4183 4 12 4C7.58172 4 4 7.58172 4 12C4 16.4183 7.58172 20 12 20C16.4183 20 20 16.4183 20 12ZM22 12C22 17.5228 17.5228 22 12 22C6.47715 22 2 17.5228 2 12C2 6.47715 6.47715 2 12 2C17.5228 2 22 6.47715 22 12Z" fill="#3C3E44"/>
<path d="M7.79295 7.79289C8.18348 7.40237 8.81649 7.40237 9.20702 7.79289L16.207 14.7929C16.5975 15.1834 16.5975 15.8164 16.207 16.207C15.8165 16.5975 15.1835 16.5975 14.793 16.207L7.79295 9.20696C7.40243 8.81643 7.40243 8.18342 7.79295 7.79289Z" fill="#3C3E44"/>
</svg>
