<svg width="24" height="24" viewBox="0 0 24 24" fill="none" xmlns="http://www.w3.org/2000/svg">
<path fill-rule="evenodd" clip-rule="evenodd" d="M21 17L12 17C11.4477 17 11 16.5523 11 16C11 15.4477 11.4477 15 12 15L21 15C21.5523 15 22 15.4477 22 16C22 16.5523 21.5523 17 21 17Z" fill="#3C3E44"/>
<path fill-rule="evenodd" clip-rule="evenodd" d="M2 16C2 15.4477 2.44772 15 3 15H5C5.55228 15 6 15.4477 6 16C6 16.5523 5.55228 17 5 17H3C2.44772 17 2 16.5523 2 16Z" fill="#3C3E44"/>
<path fill-rule="evenodd" clip-rule="evenodd" d="M8.5 14.5C7.67157 14.5 7 15.1716 7 16C7 16.8284 7.67157 17.5 8.5 17.5C9.32843 17.5 10 16.8284 10 16C10 15.1716 9.32843 14.5 8.5 14.5ZM5 16C5 14.067 6.567 12.5 8.5 12.5C10.433 12.5 12 14.067 12 16C12 17.933 10.433 19.5 8.5 19.5C6.567 19.5 5 17.933 5 16Z" fill="#3C3E44"/>
<path fill-rule="evenodd" clip-rule="evenodd" d="M18 8C18 7.44772 18.4477 7 19 7H21C21.5523 7 22 7.44772 22 8C22 8.55228 21.5523 9 21 9H19C18.4477 9 18 8.55228 18 8Z" fill="#3C3E44"/>
<path fill-rule="evenodd" clip-rule="evenodd" d="M2 8C2 7.44772 2.44772 7 3 7H12C12.5523 7 13 7.44772 13 8C13 8.55228 12.5523 9 12 9H3C2.44772 9 2 8.55228 2 8Z" fill="#3C3E44"/>
<path fill-rule="evenodd" clip-rule="evenodd" d="M15.5 6.5C14.6716 6.5 14 7.17157 14 8C14 8.82843 14.6716 9.5 15.5 9.5C16.3284 9.5 17 8.82843 17 8C17 7.17157 16.3284 6.5 15.5 6.5ZM12 8C12 6.067 13.567 4.5 15.5 4.5C17.433 4.5 19 6.067 19 8C19 9.933 17.433 11.5 15.5 11.5C13.567 11.5 12 9.933 12 8Z" fill="#3C3E44"/>
</svg>
