<svg width="24" height="24" viewBox="0 0 24 24" fill="none" xmlns="http://www.w3.org/2000/svg">
<path fill-rule="evenodd" clip-rule="evenodd" d="M12 4C7.58172 4 4 7.58172 4 12C4 16.4183 7.58172 20 12 20C16.4183 20 20 16.4183 20 12C20 7.58172 16.4183 4 12 4ZM2 12C2 6.47715 6.47715 2 12 2C17.5228 2 22 6.47715 22 12C22 17.5228 17.5228 22 12 22C6.47715 22 2 17.5228 2 12Z" fill="#3C3E44"/>
<path fill-rule="evenodd" clip-rule="evenodd" d="M16.1823 8.76895C16.5861 9.14578 16.6079 9.77857 16.2311 10.1823L11.5644 15.1823C11.3753 15.385 11.1105 15.5 10.8333 15.5C10.5562 15.5 10.2914 15.385 10.1023 15.1823L7.76895 12.6823C7.39211 12.2786 7.41393 11.6458 7.81769 11.2689C8.22144 10.8921 8.85423 10.9139 9.23106 11.3177L10.8333 13.0344L14.7689 8.81769C15.1458 8.41393 15.7786 8.39211 16.1823 8.76895Z" fill="#3C3E44"/>
</svg>
