<svg width="24" height="24" viewBox="0 0 24 24" fill="none" xmlns="http://www.w3.org/2000/svg">
<path fill-rule="evenodd" clip-rule="evenodd" d="M2 9.81818C2 8.17419 3.43497 7 5 7H19C20.565 7 22 8.17419 22 9.81818V16.1818C22 17.8258 20.565 19 19 19H17.5C16.9477 19 16.5 18.5523 16.5 18C16.5 17.4477 16.9477 17 17.5 17H19C19.6441 17 20 16.5461 20 16.1818V9.81818C20 9.45387 19.6441 9 19 9H5C4.35589 9 4 9.45387 4 9.81818V16.1818C4 16.5461 4.35589 17 5 17H6.5C7.05228 17 7.5 17.4477 7.5 18C7.5 18.5523 7.05228 19 6.5 19H5C3.43497 19 2 17.8258 2 16.1818V9.81818Z" fill="#3C3E44"/>
<path fill-rule="evenodd" clip-rule="evenodd" d="M6 3C6 2.44772 6.44772 2 7 2H17C17.5523 2 18 2.44772 18 3V8C18 8.55228 17.5523 9 17 9H7C6.44772 9 6 8.55228 6 8V3ZM8 4V7H16V4H8Z" fill="#3C3E44"/>
<path fill-rule="evenodd" clip-rule="evenodd" d="M18 11C18 11.5523 17.5523 12 17 12H13C12.4477 12 12 11.5523 12 11C12 10.4477 12.4477 10 13 10H17C17.5523 10 18 10.4477 18 11Z" fill="#3C3E44"/>
<path fill-rule="evenodd" clip-rule="evenodd" d="M6 15C6 14.4477 6.44772 14 7 14H17C17.5523 14 18 14.4477 18 15V21C18 21.5523 17.5523 22 17 22H7C6.44772 22 6 21.5523 6 21V15ZM8 16V20H16V16H8Z" fill="#3C3E44"/>
</svg>
