<svg width="24" height="24" viewBox="0 0 24 24" fill="none" xmlns="http://www.w3.org/2000/svg">
<path fill-rule="evenodd" clip-rule="evenodd" d="M8.97896 18.7362C8.23436 19.1829 8 19.6608 8 20C8 20.5523 7.55228 21 7 21C6.44772 21 6 20.5523 6 20C6 18.6823 6.88493 17.6602 7.94997 17.0212C9.03492 16.3702 10.4692 16 12 16C13.5308 16 14.9651 16.3702 16.05 17.0212C17.1151 17.6602 18 18.6823 18 20C18 20.5523 17.5523 21 17 21C16.4477 21 16 20.5523 16 20C16 19.6608 15.7656 19.1829 15.021 18.7362C14.2963 18.3014 13.2306 18 12 18C10.7694 18 9.70366 18.3014 8.97896 18.7362Z" fill="#3C3E44"/>
<path fill-rule="evenodd" clip-rule="evenodd" d="M12 9C10.8954 9 10 9.89543 10 11C10 12.1046 10.8954 13 12 13C13.1046 13 14 12.1046 14 11C14 9.89543 13.1046 9 12 9ZM8 11C8 8.79086 9.79086 7 12 7C14.2091 7 16 8.79086 16 11C16 13.2091 14.2091 15 12 15C9.79086 15 8 13.2091 8 11Z" fill="#3C3E44"/>
<path fill-rule="evenodd" clip-rule="evenodd" d="M2 5C2 3.34315 3.34315 2 5 2H19C20.6569 2 22 3.34315 22 5V19C22 20.6569 20.6569 22 19 22H5C3.34315 22 2 20.6569 2 19V5ZM5 4C4.44772 4 4 4.44772 4 5V19C4 19.5523 4.44772 20 5 20H19C19.5523 20 20 19.5523 20 19V5C20 4.44772 19.5523 4 19 4H5Z" fill="#3C3E44"/>
</svg>
