<svg width="24" height="24" viewBox="0 0 24 24" fill="none" xmlns="http://www.w3.org/2000/svg">
<path fill-rule="evenodd" clip-rule="evenodd" d="M8.97896 17.7362C8.23436 18.1829 8 18.6608 8 19C8 19.5523 7.55228 20 7 20C6.44772 20 6 19.5523 6 19C6 17.6823 6.88493 16.6602 7.94997 16.0212C9.03492 15.3702 10.4692 15 12 15C13.5308 15 14.9651 15.3702 16.05 16.0212C17.1151 16.6602 18 17.6823 18 19C18 19.5523 17.5523 20 17 20C16.4477 20 16 19.5523 16 19C16 18.6608 15.7656 18.1829 15.021 17.7362C14.2963 17.3014 13.2306 17 12 17C10.7694 17 9.70366 17.3014 8.97896 17.7362Z" fill="#3C3E44"/>
<path fill-rule="evenodd" clip-rule="evenodd" d="M12 8C10.8954 8 10 8.89543 10 10C10 11.1046 10.8954 12 12 12C13.1046 12 14 11.1046 14 10C14 8.89543 13.1046 8 12 8ZM8 10C8 7.79086 9.79086 6 12 6C14.2091 6 16 7.79086 16 10C16 12.2091 14.2091 14 12 14C9.79086 14 8 12.2091 8 10Z" fill="#3C3E44"/>
<path fill-rule="evenodd" clip-rule="evenodd" d="M12 4C7.58172 4 4 7.58172 4 12C4 16.4183 7.58172 20 12 20C16.4183 20 20 16.4183 20 12C20 7.58172 16.4183 4 12 4ZM2 12C2 6.47715 6.47715 2 12 2C17.5228 2 22 6.47715 22 12C22 17.5228 17.5228 22 12 22C6.47715 22 2 17.5228 2 12Z" fill="#3C3E44"/>
</svg>
