<svg width="24" height="24" viewBox="0 0 24 24" fill="none" xmlns="http://www.w3.org/2000/svg">
<path fill-rule="evenodd" clip-rule="evenodd" d="M5.7 4.8C5.4613 4.8 5.23239 4.89482 5.0636 5.0636C4.89482 5.23239 4.8 5.4613 4.8 5.7V18.3C4.8 18.5387 4.89482 18.7676 5.0636 18.9364C5.23239 19.1052 5.46131 19.2 5.7 19.2H18.3C18.5387 19.2 18.7676 19.1052 18.9364 18.9364C19.1052 18.7676 19.2 18.5387 19.2 18.3V8.77279L15.2272 4.8H5.7ZM3.79081 3.79081C4.29716 3.28446 4.98392 3 5.7 3H15.6C15.8387 3 16.0676 3.09482 16.2364 3.2636L20.7364 7.7636C20.9052 7.93239 21 8.1613 21 8.4V18.3C21 19.0161 20.7155 19.7028 20.2092 20.2092C19.7028 20.7155 19.0161 21 18.3 21H5.7C4.98392 21 4.29716 20.7155 3.79081 20.2092C3.28446 19.7028 3 19.0161 3 18.3V5.7C3 4.98392 3.28446 4.29716 3.79081 3.79081Z" fill="#3C3E44"/>
<path fill-rule="evenodd" clip-rule="evenodd" d="M6.59998 12.9C6.59998 12.4029 7.00292 12 7.49998 12H16.5C16.997 12 17.4 12.4029 17.4 12.9V20.1C17.4 20.5971 16.997 21 16.5 21C16.0029 21 15.6 20.5971 15.6 20.1V13.8H8.39998V20.1C8.39998 20.5971 7.99703 21 7.49998 21C7.00292 21 6.59998 20.5971 6.59998 20.1V12.9Z" fill="#3C3E44"/>
<path fill-rule="evenodd" clip-rule="evenodd" d="M8.40002 8.4C8.40002 7.90294 8.80297 7.5 9.30002 7.5H14.7C15.1971 7.5 15.6 7.90294 15.6 8.4C15.6 8.89706 15.1971 9.3 14.7 9.3H9.30002C8.80297 9.3 8.40002 8.89706 8.40002 8.4Z" fill="#3C3E44"/>
</svg>
