<svg width="24" height="24" viewBox="0 0 24 24" fill="none" xmlns="http://www.w3.org/2000/svg">
<g clip-path="url(#clip0_1745_1788)">
<path d="M11 2C15.9706 2 20 6.02944 20 11C20 13.1245 19.2602 15.0761 18.0293 16.6152L21.707 20.293L21.7754 20.3691C22.0957 20.7619 22.0731 21.3409 21.707 21.707C21.3409 22.0731 20.7619 22.0957 20.3691 21.7754L20.293 21.707L16.6152 18.0293C15.0761 19.2602 13.1245 20 11 20C6.02944 20 2 15.9706 2 11C2 6.02944 6.02944 2 11 2ZM11 5C7.68629 5 5 7.68629 5 11C5 14.3137 7.68629 17 11 17C12.6571 17 14.1553 16.3291 15.2422 15.2422C16.3291 14.1553 17 12.6571 17 11C17 7.68629 14.3137 5 11 5Z" fill="#3C3E44"/>
</g>
<defs>
<clipPath id="clip0_1745_1788">
<rect width="24" height="24" fill="white"/>
</clipPath>
</defs>
</svg>
