<svg width="22" height="24" viewBox="0 0 22 24" fill="none" xmlns="http://www.w3.org/2000/svg">
<g clip-path="url(#clip0_1745_1794)">
<path opacity="0.2" d="M18 11C18 15.4183 14.4183 19 10 19C5.58172 19 2 15.4183 2 11C2 6.58172 5.58172 3 10 3C14.4183 3 18 6.58172 18 11Z" fill="#4949D4"/>
<path d="M20 21L15.6569 16.6569M15.6569 16.6569C17.1046 15.2091 18 13.2091 18 11C18 6.58172 14.4183 3 10 3C5.58172 3 2 6.58172 2 11C2 15.4183 5.58172 19 10 19C12.2091 19 14.2091 18.1046 15.6569 16.6569Z" stroke="#4949D4" stroke-width="2" stroke-linecap="round" stroke-linejoin="round"/>
</g>
<defs>
<clipPath id="clip0_1745_1794">
<rect width="21.9231" height="24" fill="white"/>
</clipPath>
</defs>
</svg>
