<svg width="24" height="24" viewBox="0 0 24 24" fill="none" xmlns="http://www.w3.org/2000/svg">
<g clip-path="url(#clip0_2489_1784)">
<path opacity="0.2" fill-rule="evenodd" clip-rule="evenodd" d="M3.40064 9.34463C3.79373 8.07055 4.46885 6.88134 5.39859 5.87924L6.99997 6.8038C8.3333 7.5736 9.99997 6.61135 9.99997 5.07175V3.22263C11.3327 2.9185 12.7001 2.92844 14.0001 3.22504L14.0001 5.07178C14.0001 6.61138 15.6667 7.57363 17.0001 6.80383L18.6011 5.87947C19.0491 6.36355 19.4506 6.90473 19.7943 7.50004C20.1379 8.09533 20.4059 8.71356 20.6011 9.34357L19 10.2679C17.6667 11.0377 17.6667 12.9622 19 13.732L20.5994 14.6554C20.2063 15.9295 19.5312 17.1187 18.6015 18.1208L17.0001 17.1963C15.6667 16.4265 14.0001 17.3887 14.0001 18.9283V20.7775C12.6674 21.0816 11.2999 21.0716 9.99997 20.775L9.99997 18.9282C9.99997 17.3886 8.3333 16.4264 6.99997 17.1962L5.39892 18.1206C4.95091 17.6365 4.54949 17.0953 4.2058 16.5C3.8621 15.9047 3.59414 15.2865 3.39893 14.6564L4.99994 13.7321C6.33328 12.9623 6.33328 11.0378 4.99994 10.268L3.40064 9.34463ZM12 14C13.1046 14 14 13.1046 14 12C14 10.8955 13.1046 10 12 10C10.8955 10 10 10.8955 10 12C10 13.1046 10.8955 14 12 14Z" fill="#4949D4"/>
<path fill-rule="evenodd" clip-rule="evenodd" d="M12 11C11.4477 11 11 11.4477 11 12C11 12.5523 11.4477 13 12 13C12.5523 13 13 12.5523 13 12C13 11.4477 12.5523 11 12 11ZM9 12C9 10.3431 10.3431 9 12 9C13.6569 9 15 10.3431 15 12C15 13.6569 13.6569 15 12 15C10.3431 15 9 13.6569 9 12Z" fill="#4949D4"/>
<path fill-rule="evenodd" clip-rule="evenodd" d="M8.99994 3.22263C8.99994 2.75606 9.32258 2.3515 9.77745 2.24769C11.2597 1.90945 12.7792 1.92079 14.2225 2.2501C14.6774 2.35389 15 2.75846 15 3.22504L15 5.07178C15 5.84158 15.8334 6.3227 16.5 5.9378L18.1011 5.01345C18.5055 4.77993 19.0177 4.85747 19.335 5.20022C19.8332 5.73857 20.2791 6.33981 20.6602 7.00004C21.0414 7.66024 21.3392 8.34696 21.5563 9.04761C21.6945 9.49371 21.5055 9.97608 21.1011 10.2096L19.5 11.134C18.8333 11.5189 18.8333 12.4811 19.5 12.866L21.0994 13.7894C21.5035 14.0227 21.6925 14.5044 21.5549 14.9503C21.1185 16.3648 20.3685 17.6865 19.3345 18.801C19.0172 19.143 18.5055 19.2201 18.1014 18.9869L16.5 18.0623C15.8334 17.6774 15 18.1585 15 18.9283L15 20.7775C15 21.244 14.6774 21.6486 14.2225 21.7524C12.7403 22.0906 11.2207 22.0793 9.77748 21.75C9.32259 21.6462 8.99994 21.2416 8.99994 20.775L8.99994 18.9282C8.99994 18.1584 8.1666 17.6773 7.49993 18.0622L5.89888 18.9866C5.49442 19.2201 4.98219 19.1426 4.66497 18.7998C4.16674 18.2615 3.72091 17.6602 3.33974 17C2.95856 16.3398 2.66079 15.6531 2.44369 14.9524C2.30547 14.5063 2.49443 14.0239 2.89889 13.7904L4.49991 12.8661C5.16657 12.4812 5.16658 11.5189 4.49991 11.134L2.9006 10.2107C2.49653 9.97737 2.30749 9.49565 2.44505 9.04981C2.88149 7.63526 3.63144 6.31361 4.66548 5.1991C4.98281 4.85707 5.49449 4.77994 5.89855 5.01322L7.49994 5.93778C8.1666 6.32268 8.99994 5.84155 8.99993 5.07175L8.99994 3.22263ZM10.9999 4.06044L10.9999 5.07175C10.9999 7.38116 8.49993 8.82453 6.49993 7.66983L5.62412 7.16418C5.21745 7.7009 4.88315 8.28387 4.62568 8.89723L5.49991 9.40197C7.49991 10.5567 7.49991 13.4434 5.49991 14.5981L4.62528 15.1031C4.75363 15.4069 4.90228 15.7064 5.07179 16C5.24129 16.2936 5.42635 16.5721 5.62528 16.8351L6.49993 16.3302C8.49993 15.1755 10.9999 16.6188 10.9999 18.9282L10.9999 19.9378C11.6599 20.0215 12.3319 20.0235 13 19.9396L13 18.9283C13 16.6189 15.5 15.1755 17.5 16.3302L18.3759 16.8359C18.7825 16.2992 19.1168 15.7162 19.3743 15.1028L18.5 14.5981C16.5 13.4434 16.5 10.5566 18.5 9.40192L19.3747 8.89693C19.2463 8.59313 19.0977 8.29362 18.9282 8.00004C18.7587 7.70644 18.5736 7.42794 18.3747 7.16488L17.5 7.66985C15.5 8.82455 13 7.38118 13 5.07178L13 4.06229C12.3401 3.97859 11.6681 3.97662 10.9999 4.06044Z" fill="#4949D4"/>
</g>
<defs>
<clipPath id="clip0_2489_1784">
<rect width="24" height="24" fill="white"/>
</clipPath>
</defs>
</svg>
