<svg width="24" height="24" viewBox="0 0 24 24" fill="none" xmlns="http://www.w3.org/2000/svg">
<g clip-path="url(#clip0_2489_1778)">
<path fill-rule="evenodd" clip-rule="evenodd" d="M12 11C11.4477 11 11 11.4477 11 12C11 12.5523 11.4477 13 12 13C12.5523 13 13 12.5523 13 12C13 11.4477 12.5523 11 12 11ZM9 12C9 10.3431 10.3431 9 12 9C13.6569 9 15 10.3431 15 12C15 13.6569 13.6569 15 12 15C10.3431 15 9 13.6569 9 12Z" fill="#3C3E44"/>
<path fill-rule="evenodd" clip-rule="evenodd" d="M8.99994 3.22257C8.99994 2.756 9.32258 2.35144 9.77745 2.24763C11.2597 1.90938 12.7792 1.92073 14.2225 2.25004C14.6774 2.35383 15 2.7584 15 3.22498L15 5.07172C15 5.84152 15.8334 6.32264 16.5 5.93774L18.1011 5.01338C18.5055 4.77987 19.0177 4.85741 19.335 5.20016C19.8332 5.73851 20.2791 6.33975 20.6602 6.99998C21.0414 7.66018 21.3392 8.3469 21.5563 9.04754C21.6945 9.49365 21.5055 9.97602 21.1011 10.2095L19.5 11.1339C18.8333 11.5188 18.8333 12.4811 19.5 12.866L21.0994 13.7894C21.5035 14.0227 21.6925 14.5044 21.5549 14.9502C21.1185 16.3648 20.3685 17.6864 19.3345 18.8009C19.0172 19.143 18.5055 19.2201 18.1014 18.9868L16.5 18.0622C15.8334 17.6773 15 18.1585 15 18.9283L15 20.7774C15 21.244 14.6774 21.6485 14.2225 21.7523C12.7403 22.0906 11.2207 22.0792 9.77748 21.7499C9.32259 21.6461 8.99994 21.2415 8.99994 20.775L8.99994 18.9282C8.99994 18.1584 8.1666 17.6773 7.49993 18.0622L5.89888 18.9865C5.49442 19.22 4.98219 19.1425 4.66497 18.7997C4.16674 18.2614 3.72091 17.6602 3.33974 17C2.95856 16.3398 2.66079 15.653 2.44369 14.9523C2.30547 14.5062 2.49443 14.0239 2.89889 13.7904L4.49991 12.866C5.16657 12.4811 5.16658 11.5189 4.49991 11.134L2.9006 10.2106C2.49653 9.97731 2.30749 9.49559 2.44505 9.04975C2.88149 7.6352 3.63144 6.31355 4.66548 5.19904C4.98281 4.85701 5.49449 4.77988 5.89855 5.01316L7.49994 5.93772C8.1666 6.32262 8.99994 5.84149 8.99993 5.07169L8.99994 3.22257ZM10.9999 4.06038L10.9999 5.07169C10.9999 7.38109 8.49993 8.82447 6.49993 7.66977L5.62412 7.16412C5.21745 7.70084 4.88315 8.28381 4.62568 8.89717L5.49991 9.40191C7.49991 10.5566 7.49991 13.4434 5.49991 14.5981L4.62528 15.103C4.75363 15.4068 4.90228 15.7064 5.07179 16C5.24129 16.2936 5.42635 16.572 5.62528 16.8351L6.49993 16.3301C8.49993 15.1754 10.9999 16.6188 10.9999 18.9282L10.9999 19.9377C11.6599 20.0214 12.3319 20.0234 13 19.9396L13 18.9283C13 16.6189 15.5 15.1755 17.5 16.3302L18.3759 16.8358C18.7825 16.2991 19.1168 15.7161 19.3743 15.1028L18.5 14.598C16.5 13.4433 16.5 10.5566 18.5 9.40186L19.3747 8.89687C19.2463 8.59307 19.0977 8.29356 18.9282 7.99998C18.7587 7.70638 18.5736 7.42788 18.3747 7.16482L17.5 7.66979C15.5 8.82449 13 7.38112 13 5.07172L13 4.06223C12.3401 3.97853 11.6681 3.97656 10.9999 4.06038Z" fill="#3C3E44"/>
</g>
<defs>
<clipPath id="clip0_2489_1778">
<rect width="24" height="24" fill="white"/>
</clipPath>
</defs>
</svg>
