<svg width="24" height="24" viewBox="0 0 24 24" fill="none" xmlns="http://www.w3.org/2000/svg">
<path fill-rule="evenodd" clip-rule="evenodd" d="M15 6C15 6.55228 14.5523 7 14 7L3 7C2.44771 7 2 6.55228 2 6C2 5.44771 2.44771 5 3 5L14 5C14.5523 5 15 5.44772 15 6Z" fill="#3C3E44"/>
<path fill-rule="evenodd" clip-rule="evenodd" d="M22 6C22 6.55228 21.5523 7 21 7L18 7C17.4477 7 17 6.55228 17 6C17 5.44771 17.4477 5 18 5L21 5C21.5523 5 22 5.44772 22 6Z" fill="#3C3E44"/>
<path fill-rule="evenodd" clip-rule="evenodd" d="M18 9C17.4477 9 17 8.55228 17 8L17 4C17 3.44772 17.4477 3 18 3C18.5523 3 19 3.44772 19 4L19 8C19 8.55228 18.5523 9 18 9Z" fill="#3C3E44"/>
<path fill-rule="evenodd" clip-rule="evenodd" d="M5 12C5 12.5523 4.55228 13 4 13L3 13C2.44772 13 2 12.5523 2 12C2 11.4477 2.44772 11 3 11L4 11C4.55228 11 5 11.4477 5 12Z" fill="#3C3E44"/>
<path fill-rule="evenodd" clip-rule="evenodd" d="M22 12C22 12.5523 21.5523 13 21 13L8 13C7.44771 13 7 12.5523 7 12C7 11.4477 7.44771 11 8 11L21 11C21.5523 11 22 11.4477 22 12Z" fill="#3C3E44"/>
<path fill-rule="evenodd" clip-rule="evenodd" d="M8 15C7.44772 15 7 14.5523 7 14L7 10C7 9.44772 7.44772 9 8 9C8.55228 9 9 9.44772 9 10L9 14C9 14.5523 8.55228 15 8 15Z" fill="#3C3E44"/>
<path fill-rule="evenodd" clip-rule="evenodd" d="M11 18C11 18.5523 10.5523 19 10 19L3 19C2.44772 19 2 18.5523 2 18C2 17.4477 2.44772 17 3 17L10 17C10.5523 17 11 17.4477 11 18Z" fill="#3C3E44"/>
<path fill-rule="evenodd" clip-rule="evenodd" d="M22 18C22 18.5523 21.5523 19 21 19L14 19C13.4477 19 13 18.5523 13 18C13 17.4477 13.4477 17 14 17L21 17C21.5523 17 22 17.4477 22 18Z" fill="#3C3E44"/>
<path fill-rule="evenodd" clip-rule="evenodd" d="M14 21C13.4477 21 13 20.5523 13 20L13 16C13 15.4477 13.4477 15 14 15C14.5523 15 15 15.4477 15 16L15 20C15 20.5523 14.5523 21 14 21Z" fill="#3C3E44"/>
</svg>
