<svg width="24" height="24" viewBox="0 0 24 24" fill="none" xmlns="http://www.w3.org/2000/svg">
<path fill-rule="evenodd" clip-rule="evenodd" d="M10.6777 3.34141C11.2001 2.21953 12.7999 2.21953 13.3223 3.34141L15.5133 8.04596L20.7121 8.65648C21.9355 8.80015 22.4571 10.3194 21.5279 11.1705L20.8524 10.433L21.5279 11.1705L17.6904 14.6853L18.7086 19.7602C18.957 20.9988 17.6358 21.9063 16.5704 21.3156L12 18.7818L7.4296 21.3156C6.36415 21.9063 5.04295 20.9988 5.29144 19.7602L6.30954 14.6853L2.47214 11.1705C1.54293 10.3194 2.06448 8.80015 3.28793 8.65648L8.48673 8.04596L10.6777 3.34142L11.5842 3.76358L10.6777 3.34141ZM8.78589 8.01083L8.78646 8.01076L8.84981 8.55015L8.78646 8.01076C8.78627 8.01079 8.78608 8.01081 8.78589 8.01083ZM15.214 8.01082C15.2139 8.0108 15.2137 8.01078 15.2135 8.01076L15.1502 8.55015L15.2135 8.01076L15.214 8.01082ZM12 5.23941L10.1715 9.16568C9.95698 9.62636 9.51909 9.93847 9.01973 9.99711L4.70532 10.5038L7.88821 13.4191L7.21278 14.1565L7.16563 14.208M7.21278 14.1565L7.88821 13.4191C8.2618 13.7613 8.43179 14.2745 8.33148 14.7746L7.48407 18.9986L11.2914 16.8878C11.732 16.6435 12.268 16.6435 12.7085 16.8878L16.5159 18.9986L15.6685 14.7746C15.5682 14.2745 15.7382 13.7613 16.1118 13.4191L19.2947 10.5038L14.9803 9.99711C14.4809 9.93847 14.043 9.62636 13.8285 9.16568L12 5.23941" fill="#3C3E44"/>
</svg>
