<svg width="24" height="24" viewBox="0 0 24 24" fill="none" xmlns="http://www.w3.org/2000/svg">
<path fill-rule="evenodd" clip-rule="evenodd" d="M12 3.44444C11.0345 3.44444 10.1151 3.82457 9.44238 4.4907C8.77083 5.15569 8.4 6.05015 8.4 6.97531V9.77778C8.4 10.4528 7.86274 11 7.2 11C6.53726 11 6 10.4528 6 9.77778V6.97531C6 5.37927 6.6406 3.85581 7.76939 2.73804C8.89704 1.62142 10.4194 1 12 1C13.5806 1 15.103 1.62142 16.2306 2.73804C17.3594 3.85581 18 5.37927 18 6.97531C18 7.65032 17.4627 8.19753 16.8 8.19753C16.1373 8.19753 15.6 7.65032 15.6 6.97531C15.6 6.05015 15.2292 5.15569 14.5576 4.4907C13.8849 3.82457 12.9655 3.44444 12 3.44444Z" fill="#3C3E44"/>
<path fill-rule="evenodd" clip-rule="evenodd" d="M3 12C3 10.8954 4.00736 10 5.25 10H18.75C19.9926 10 21 10.8954 21 12V20C21 21.1046 19.9926 22 18.75 22H5.25C4.00736 22 3 21.1046 3 20V12ZM18.75 12L5.25 12V20H18.75V12Z" fill="#3C3E44"/>
</svg>
