<svg width="24" height="24" viewBox="0 0 24 24" fill="none" xmlns="http://www.w3.org/2000/svg">
<path fill-rule="evenodd" clip-rule="evenodd" d="M12 18C11.4477 18 11 17.5523 11 17L11 6.41421L7.70711 9.7071C7.31658 10.0976 6.68342 10.0976 6.29289 9.7071C5.90237 9.31658 5.90237 8.68341 6.29289 8.29289L11.2929 3.29289C11.6834 2.90237 12.3166 2.90237 12.7071 3.29289L17.7071 8.29289C18.0976 8.68342 18.0976 9.31658 17.7071 9.70711C17.3166 10.0976 16.6834 10.0976 16.2929 9.70711L13 6.41421L13 17C13 17.5523 12.5523 18 12 18Z" fill="#3C3E44"/>
<path fill-rule="evenodd" clip-rule="evenodd" d="M5 20C5 19.4477 5.44772 19 6 19H18C18.5523 19 19 19.4477 19 20C19 20.5523 18.5523 21 18 21H6C5.44772 21 5 20.5523 5 20Z" fill="#3C3E44"/>
</svg>
