<svg width="24" height="24" viewBox="0 0 24 24" fill="none" xmlns="http://www.w3.org/2000/svg">
<path fill-rule="evenodd" clip-rule="evenodd" d="M5.54639 19.0398C4.42817 19.6788 4 20.4092 4 21C4 21.5523 3.55228 22 3 22C2.44772 22 2 21.5523 2 21C2 19.3817 3.13883 18.1121 4.55411 17.3033C5.99769 16.4784 7.92522 16 10 16C12.0748 16 14.0023 16.4784 15.4459 17.3033C16.8612 18.1121 18 19.3817 18 21C18 21.5523 17.5523 22 17 22C16.4477 22 16 21.5523 16 21C16 20.4092 15.5718 19.6788 14.4536 19.0398C13.3637 18.417 11.7912 18 10 18C8.20879 18 6.63632 18.417 5.54639 19.0398Z" fill="#3C3E44"/>
<path fill-rule="evenodd" clip-rule="evenodd" d="M19 10C19.5523 10 20 10.4477 20 11L20 17C20 17.5523 19.5523 18 19 18C18.4477 18 18 17.5523 18 17L18 11C18 10.4477 18.4477 10 19 10Z" fill="#3C3E44"/>
<path fill-rule="evenodd" clip-rule="evenodd" d="M22 15L16 15C15.4477 15 15 14.5523 15 14C15 13.4477 15.4477 13 16 13L22 13C22.5523 13 23 13.4477 23 14C23 14.5523 22.5523 15 22 15Z" fill="#3C3E44"/>
<path fill-rule="evenodd" clip-rule="evenodd" d="M10 4C7.79086 4 6 5.79086 6 8C6 10.2091 7.79086 12 10 12C12.2091 12 14 10.2091 14 8C14 5.79086 12.2091 4 10 4ZM4 8C4 4.68629 6.68629 2 10 2C13.3137 2 16 4.68629 16 8C16 11.3137 13.3137 14 10 14C6.68629 14 4 11.3137 4 8Z" fill="#3C3E44"/>
</svg>
