<svg width="24" height="24" viewBox="0 0 24 24" fill="none" xmlns="http://www.w3.org/2000/svg">
<path fill-rule="evenodd" clip-rule="evenodd" d="M17.121 4.46452C17.5115 4.074 18.1447 4.074 18.5352 4.46452C18.9995 4.92882 19.3678 5.48001 19.6191 6.08664C19.8704 6.69327 19.9997 7.34345 19.9997 8.00006C19.9997 8.65667 19.8704 9.30685 19.6191 9.91348C19.3678 10.5201 18.9995 11.0713 18.5352 11.5356C18.1447 11.9261 17.5115 11.9261 17.121 11.5356C16.7305 11.1451 16.7305 10.5119 17.121 10.1214C17.3996 9.8428 17.6206 9.51209 17.7713 9.14811C17.9221 8.78413 17.9997 8.39402 17.9997 8.00006C17.9997 7.60609 17.9221 7.21598 17.7713 6.85201C17.6206 6.48803 17.3996 6.15731 17.121 5.87874C16.7305 5.48821 16.7305 4.85505 17.121 4.46452Z" fill="#3C3E44"/>
<path fill-rule="evenodd" clip-rule="evenodd" d="M19.2929 2.29289C19.6834 1.90237 20.3166 1.90237 20.7071 2.29289C21.4566 3.04236 22.0511 3.93211 22.4567 4.91133C22.8623 5.89056 23.0711 6.94009 23.0711 8C23.0711 9.05991 22.8623 10.1094 22.4567 11.0887C22.0511 12.0679 21.4566 12.9576 20.7071 13.7071C20.3166 14.0976 19.6834 14.0976 19.2929 13.7071C18.9024 13.3166 18.9024 12.6834 19.2929 12.2929C19.8566 11.7291 20.3038 11.0599 20.6089 10.3233C20.914 9.58672 21.0711 8.79726 21.0711 8C21.0711 7.20273 20.914 6.41328 20.6089 5.6767C20.3038 4.94013 19.8566 4.27086 19.2929 3.70711C18.9024 3.31658 18.9024 2.68342 19.2929 2.29289Z" fill="#3C3E44"/>
<path fill-rule="evenodd" clip-rule="evenodd" d="M5.54639 19.0398C4.42817 19.6788 4 20.4092 4 21C4 21.5523 3.55228 22 3 22C2.44772 22 2 21.5523 2 21C2 19.3817 3.13883 18.1121 4.55411 17.3033C5.99769 16.4784 7.92522 16 10 16C12.0748 16 14.0023 16.4784 15.4459 17.3033C16.8612 18.1121 18 19.3817 18 21C18 21.5523 17.5523 22 17 22C16.4477 22 16 21.5523 16 21C16 20.4092 15.5718 19.6788 14.4536 19.0398C13.3637 18.417 11.7912 18 10 18C8.20879 18 6.63632 18.417 5.54639 19.0398Z" fill="#3C3E44"/>
<path fill-rule="evenodd" clip-rule="evenodd" d="M10 4C7.79086 4 6 5.79086 6 8C6 10.2091 7.79086 12 10 12C12.2091 12 14 10.2091 14 8C14 5.79086 12.2091 4 10 4ZM4 8C4 4.68629 6.68629 2 10 2C13.3137 2 16 4.68629 16 8C16 11.3137 13.3137 14 10 14C6.68629 14 4 11.3137 4 8Z" fill="#3C3E44"/>
</svg>
