<svg width="24" height="24" viewBox="0 0 24 24" fill="none" xmlns="http://www.w3.org/2000/svg">
<path fill-rule="evenodd" clip-rule="evenodd" d="M7.54639 19.0398C6.42817 19.6788 6 20.4092 6 21C6 21.5523 5.55228 22 5 22C4.44772 22 4 21.5523 4 21C4 19.3817 5.13883 18.1121 6.55411 17.3033C7.99769 16.4784 9.92522 16 12 16C14.0748 16 16.0023 16.4784 17.4459 17.3033C18.8612 18.1121 20 19.3817 20 21C20 21.5523 19.5523 22 19 22C18.4477 22 18 21.5523 18 21C18 20.4092 17.5718 19.6788 16.4536 19.0398C15.3637 18.417 13.7912 18 12 18C10.2088 18 8.63632 18.417 7.54639 19.0398Z" fill="#3C3E44"/>
<path fill-rule="evenodd" clip-rule="evenodd" d="M12 4C9.79086 4 8 5.79086 8 8C8 10.2091 9.79086 12 12 12C14.2091 12 16 10.2091 16 8C16 5.79086 14.2091 4 12 4ZM6 8C6 4.68629 8.68629 2 12 2C15.3137 2 18 4.68629 18 8C18 11.3137 15.3137 14 12 14C8.68629 14 6 11.3137 6 8Z" fill="#3C3E44"/>
</svg>
