<svg width="24" height="24" viewBox="0 0 24 24" fill="none" xmlns="http://www.w3.org/2000/svg">
<path fill-rule="evenodd" clip-rule="evenodd" d="M9 10C8.44772 10 8 10.4477 8 11C8 11.5523 8.44772 12 9 12C9.55228 12 10 11.5523 10 11C10 10.4477 9.55228 10 9 10ZM6 11C6 9.34315 7.34315 8 9 8C10.6569 8 12 9.34315 12 11C12 12.6569 10.6569 14 9 14C7.34315 14 6 12.6569 6 11Z" fill="#3C3E44"/>
<path fill-rule="evenodd" clip-rule="evenodd" d="M7.43338 17.4178C7.06927 17.6606 7 17.8861 7 18C7 18.5523 6.55228 19 6 19C5.44772 19 5 18.5523 5 18C5 17.0093 5.6023 16.2349 6.32398 15.7537C7.05265 15.268 8.00168 15 9 15C9.99832 15 10.9474 15.268 11.676 15.7537C12.3977 16.2349 13 17.0093 13 18C13 18.5523 12.5523 19 12 19C11.4477 19 11 18.5523 11 18C11 17.8861 10.9307 17.6606 10.5666 17.4178C10.2095 17.1798 9.65854 17 9 17C8.34146 17 7.7905 17.1798 7.43338 17.4178Z" fill="#3C3E44"/>
<path fill-rule="evenodd" clip-rule="evenodd" d="M15 10L18 10C18.5523 10 19 10.4477 19 11C19 11.5523 18.5523 12 18 12L15 12C14.4477 12 14 11.5523 14 11C14 10.4477 14.4477 10 15 10Z" fill="#3C3E44"/>
<path fill-rule="evenodd" clip-rule="evenodd" d="M14 14C14 13.4477 14.4477 13 15 13L18 13C18.5523 13 19 13.4477 19 14C19 14.5523 18.5523 15 18 15L15 15C14.4477 15 14 14.5523 14 14Z" fill="#3C3E44"/>
<path fill-rule="evenodd" clip-rule="evenodd" d="M2 7C2 5.34315 3.34315 4 5 4H19C20.6569 4 22 5.34315 22 7V17C22 18.6569 20.6569 20 19 20H5C3.34315 20 2 18.6569 2 17V7ZM5 6C4.44772 6 4 6.44772 4 7V17C4 17.5523 4.44772 18 5 18H19C19.5523 18 20 17.5523 20 17V7C20 6.44772 19.5523 6 19 6H5Z" fill="#3C3E44"/>
</svg>
