<svg width="24" height="24" viewBox="0 0 24 24" fill="none" xmlns="http://www.w3.org/2000/svg">
<path fill-rule="evenodd" clip-rule="evenodd" d="M22.7071 11.2929C23.0976 11.6834 23.0976 12.3166 22.7071 12.7071L18.7071 16.7071C18.3166 17.0976 17.6834 17.0976 17.2929 16.7071L15.2929 14.7071C14.9024 14.3166 14.9024 13.6834 15.2929 13.2929C15.6834 12.9024 16.3166 12.9024 16.7071 13.2929L18 14.5858L21.2929 11.2929C21.6834 10.9024 22.3166 10.9024 22.7071 11.2929Z" fill="#3C3E44"/>
<path fill-rule="evenodd" clip-rule="evenodd" d="M5.54639 19.0398C4.42817 19.6788 4 20.4092 4 21C4 21.5523 3.55228 22 3 22C2.44772 22 2 21.5523 2 21C2 19.3817 3.13883 18.1121 4.55411 17.3033C5.99769 16.4784 7.92522 16 10 16C12.0748 16 14.0023 16.4784 15.4459 17.3033C16.8612 18.1121 18 19.3817 18 21C18 21.5523 17.5523 22 17 22C16.4477 22 16 21.5523 16 21C16 20.4092 15.5718 19.6788 14.4536 19.0398C13.3637 18.417 11.7912 18 10 18C8.20879 18 6.63632 18.417 5.54639 19.0398Z" fill="#3C3E44"/>
<path fill-rule="evenodd" clip-rule="evenodd" d="M10 4C7.79086 4 6 5.79086 6 8C6 10.2091 7.79086 12 10 12C12.2091 12 14 10.2091 14 8C14 5.79086 12.2091 4 10 4ZM4 8C4 4.68629 6.68629 2 10 2C13.3137 2 16 4.68629 16 8C16 11.3137 13.3137 14 10 14C6.68629 14 4 11.3137 4 8Z" fill="#3C3E44"/>
</svg>
