<svg width="24" height="24" viewBox="0 0 24 24" fill="none" xmlns="http://www.w3.org/2000/svg">
<path fill-rule="evenodd" clip-rule="evenodd" d="M12.04 11.0021C9.70148 11.0021 7.4369 11.8217 5.64003 13.3184C5.21566 13.6718 4.58511 13.6144 4.23165 13.19C3.87819 12.7657 3.93566 12.1351 4.36003 11.7816C6.51628 9.98564 9.23378 9.00214 12.04 9.00214C14.8463 9.00214 17.5638 9.98564 19.72 11.7816C20.1444 12.1351 20.2019 12.7657 19.8484 13.19C19.4949 13.6144 18.8644 13.6718 18.44 13.3184C16.6431 11.8217 14.3786 11.0021 12.04 11.0021Z" fill="#3C3E44"/>
<path fill-rule="evenodd" clip-rule="evenodd" d="M12.0001 6.00262C8.34783 6.00262 4.82108 7.33511 2.08131 9.75014C1.667 10.1153 1.03509 10.0755 0.669891 9.66122C0.304692 9.24692 0.344501 8.61501 0.758806 8.24981C3.86388 5.51277 7.86087 4.00262 12.0001 4.00262C16.1392 4.00262 20.1362 5.51277 23.2413 8.24981C23.6556 8.61501 23.6954 9.24692 23.3302 9.66122C22.965 10.0755 22.3331 10.1153 21.9188 9.75014C19.179 7.33511 15.6523 6.00262 12.0001 6.00262Z" fill="#3C3E44"/>
<path fill-rule="evenodd" clip-rule="evenodd" d="M12.005 16.0013C10.9672 16.0013 9.95516 16.3242 9.10915 16.9252C8.65893 17.2451 8.03464 17.1394 7.71478 16.6892C7.39491 16.239 7.50059 15.6147 7.95082 15.2948C9.13522 14.4534 10.5521 14.0013 12.005 14.0013C13.4579 14.0013 14.8748 14.4534 16.0592 15.2948C16.5094 15.6147 16.6151 16.239 16.2952 16.6892C15.9753 17.1394 15.351 17.2451 14.9008 16.9252C14.0548 16.3242 13.0428 16.0013 12.005 16.0013Z" fill="#3C3E44"/>
<path fill-rule="evenodd" clip-rule="evenodd" d="M10 20C10 18.8954 10.8954 18 12 18C13.1046 18 14 18.8954 14 20C14 21.1046 13.1046 22 12 22C10.8954 22 10 21.1046 10 20Z" fill="#3C3E44"/>
</svg>
