<svg width="24" height="24" viewBox="0 0 24 24" fill="none" xmlns="http://www.w3.org/2000/svg">
<path fill-rule="evenodd" clip-rule="evenodd" d="M2.29289 2.29289C2.68342 1.90237 3.31658 1.90237 3.70711 2.29289L21.7071 20.2929C22.0976 20.6834 22.0976 21.3166 21.7071 21.7071C21.3166 22.0976 20.6834 22.0976 20.2929 21.7071L2.29289 3.70711C1.90237 3.31658 1.90237 2.68342 2.29289 2.29289Z" fill="#3C3E44"/>
<path fill-rule="evenodd" clip-rule="evenodd" d="M15.8213 10.6214C16.0635 10.1251 16.6622 9.91907 17.1585 10.1613C18.0525 10.5976 18.8885 11.1439 19.647 11.7875C20.0681 12.1448 20.1198 12.7759 19.7624 13.197C19.4051 13.6181 18.7741 13.6698 18.353 13.3125C17.7215 12.7767 17.0256 12.3219 16.2814 11.9587C15.785 11.7164 15.579 11.1177 15.8213 10.6214Z" fill="#3C3E44"/>
<path fill-rule="evenodd" clip-rule="evenodd" d="M11.1557 9.99115C11.2489 10.5355 10.8832 11.0524 10.3389 11.1457C8.60881 11.442 6.98807 12.1913 5.64146 13.3172C5.21776 13.6714 4.5871 13.6151 4.23285 13.1914C3.87859 12.7678 3.93489 12.1371 4.35859 11.7828C5.97614 10.4304 7.92299 9.5304 10.0012 9.17437C10.5455 9.08111 11.0624 9.4468 11.1557 9.99115Z" fill="#3C3E44"/>
<path fill-rule="evenodd" clip-rule="evenodd" d="M16.7313 6.76565C14.8194 6.12941 12.7988 5.88491 10.7903 6.04675C10.2398 6.09111 9.7576 5.6808 9.71324 5.1303C9.66889 4.5798 10.0792 4.09757 10.6297 4.05321C12.906 3.86979 15.1959 4.14689 17.3628 4.86796C19.5297 5.58903 21.529 6.7393 23.2416 8.25009C23.6557 8.61546 23.6953 9.24739 23.3299 9.66154C22.9645 10.0757 22.3326 10.1152 21.9185 9.74988C20.4074 8.41682 18.6433 7.40189 16.7313 6.76565Z" fill="#3C3E44"/>
<path fill-rule="evenodd" clip-rule="evenodd" d="M7.05033 5.75315C7.25294 6.26692 7.0007 6.84767 6.48693 7.05029C4.87288 7.68682 3.38232 8.60019 2.08234 9.74927C1.66854 10.115 1.03657 10.0761 0.670802 9.6623C0.305033 9.2485 0.343971 8.61653 0.757772 8.25077C2.23213 6.94755 3.92263 5.91166 5.75318 5.18975C6.26696 4.98713 6.84771 5.23937 7.05033 5.75315Z" fill="#3C3E44"/>
<path fill-rule="evenodd" clip-rule="evenodd" d="M12.005 16.0013C10.9672 16.0013 9.95516 16.3242 9.10915 16.9252C8.65893 17.2451 8.03464 17.1394 7.71478 16.6892C7.39491 16.239 7.50059 15.6147 7.95082 15.2948C9.13522 14.4534 10.5521 14.0013 12.005 14.0013C13.4579 14.0013 14.8748 14.4534 16.0592 15.2948C16.5094 15.6147 16.6151 16.239 16.2952 16.6892C15.9753 17.1394 15.351 17.2451 14.9008 16.9252C14.0548 16.3242 13.0428 16.0013 12.005 16.0013Z" fill="#3C3E44"/>
<path fill-rule="evenodd" clip-rule="evenodd" d="M10 20C10 18.8954 10.8954 18 12 18C13.1046 18 14 18.8954 14 20C14 21.1046 13.1046 22 12 22C10.8954 22 10 21.1046 10 20Z" fill="#3C3E44"/>
</svg>
