<svg width="120" height="120" viewBox="0 0 120 120" fill="none" xmlns="http://www.w3.org/2000/svg">
<path fill-rule="evenodd" clip-rule="evenodd" d="M31.7097 31.718C30.5381 32.8895 28.6386 32.8895 27.4671 31.718L23.7166 27.9675C22.545 26.7959 22.545 24.8964 23.7166 23.7248C24.8881 22.5533 26.7876 22.5533 27.9592 23.7248L31.7097 27.4753C32.8813 28.6469 32.8813 30.5464 31.7097 31.718Z" fill="white"/>
<path fill-rule="evenodd" clip-rule="evenodd" d="M31.7166 88.5257C30.545 87.3541 28.6455 87.3541 27.4739 88.5256L23.7166 92.283C22.545 93.4546 22.545 95.3541 23.7166 96.5257C24.8881 97.6972 26.7876 97.6972 27.9592 96.5257L31.7166 92.7683C32.8881 91.5967 32.8881 89.6972 31.7166 88.5257Z" fill="white"/>
<path fill-rule="evenodd" clip-rule="evenodd" d="M88.5188 31.7248C89.6904 32.8964 91.5898 32.8964 92.7614 31.7248L96.5188 27.9675C97.6904 26.7959 97.6904 24.8964 96.5188 23.7248C95.3472 22.5533 93.4477 22.5533 92.2761 23.7248L88.5188 27.4822C87.3472 28.6538 87.3472 30.5533 88.5188 31.7248Z" fill="white"/>
<path d="M81.4637 81.4668C83.2943 79.6363 86.1893 79.5233 88.1531 81.125L88.534 81.4668L103.534 96.4668L103.876 96.8477C105.478 98.8116 105.365 101.707 103.534 103.537C101.703 105.368 98.8084 105.481 96.8445 103.879L96.4637 103.537L81.4637 88.5372L81.1219 88.1563C79.5201 86.1924 79.6331 83.2974 81.4637 81.4668Z" fill="white"/>
<path d="M59.999 9.59985C62.4664 9.59985 64.5687 11.3889 64.9697 13.8235L67.5391 29.4202L67.7461 30.5227C70.0711 41.8159 79.1266 50.5679 90.5791 52.4543L106.176 55.0286C108.61 55.4296 110.399 57.5329 110.399 60.0002C110.399 62.4675 108.61 64.5699 106.176 64.9709L90.5791 67.5403C79.1267 69.4267 70.0712 78.1837 67.7461 89.4768L67.5391 90.5793L64.9697 106.177C64.5687 108.612 62.4664 110.4 59.999 110.4C57.5317 110.4 55.4293 108.612 55.0283 106.177L52.4541 90.5793C50.5676 79.1271 41.8154 70.0725 30.5225 67.7473L29.4199 67.5403L13.8223 64.9709C11.3878 64.5699 9.59971 62.4675 9.59961 60.0002C9.59961 57.5329 11.3877 55.4296 13.8223 55.0286L29.4199 52.4543L30.5225 52.2532C41.8155 49.928 50.5677 40.8725 52.4541 29.4202L55.0283 13.8235L55.1211 13.3704C55.6925 11.1692 57.6866 9.59987 59.999 9.59985Z" fill="white"/>
</svg>
