<svg width="225" height="54" viewBox="0 0 225 54" fill="none" xmlns="http://www.w3.org/2000/svg">
<path d="M225.001 50.7526V54.0001H180.082V50.7526H196.779V11.4043H182.151V1.2085H222.932V11.4043H208.304V50.7526H225.001Z" fill="white"/>
<path d="M138.096 50.7526V1.2085H175.331V11.7064H149.621V22.5819H172.745V32.6267H149.621V43.5777H176.144V50.7526H183.31V54.0001H130.93V50.7526H138.096Z" fill="white"/>
<path d="M131.765 50.7525V54H84.6299V50.7525H94.6775C91.9686 49.3427 89.5059 47.5301 87.2895 45.3147L94.1603 36.7049C99.7259 41.6895 104.873 44.1818 109.601 44.1818C111.719 44.1818 113.369 43.7287 114.551 42.8224C115.782 41.8657 116.398 40.607 116.398 39.0462C116.398 37.435 115.758 36.1762 114.477 35.2699C113.197 34.3133 110.66 33.3566 106.868 32.4C100.859 30.9399 96.4506 29.0518 93.6432 26.7357C90.885 24.3692 89.5059 20.6937 89.5059 15.7091C89.5059 10.6741 91.2544 6.7972 94.7514 4.07832C98.2976 1.35944 102.706 0 107.976 0C111.423 0 114.871 0.604197 118.319 1.81259C121.767 3.02098 124.771 4.73287 127.332 6.94825L121.496 15.558C117.014 12.0839 112.384 10.3469 107.606 10.3469C105.685 10.3469 104.159 10.8252 103.026 11.7818C101.942 12.6881 101.4 13.9217 101.4 15.4825C101.4 16.993 102.065 18.2014 103.395 19.1077C104.774 20.014 107.902 21.0965 112.778 22.3552C117.703 23.5636 121.52 25.4014 124.229 27.8685C126.938 30.3357 128.293 33.7594 128.293 38.1399C128.293 43.5776 126.298 47.7818 122.308 50.7525H131.765Z" fill="white"/>
<path d="M30.595 50.7526V1.2085H41.3814L66.722 35.1945V1.2085H78.2472V50.7526H85.4135V54.0001H66.722L42.1202 20.9204V54.0001H23.4287V50.7526H30.595Z" fill="white"/>
<path d="M24.2324 50.7526V54.0001H0V50.7526H6.35362V1.2085H17.8788V50.7526H24.2324Z" fill="white"/>
</svg>
